<?xml version="1.0" encoding="UTF-8"?>
<!DOCTYPE svg PUBLIC "-//W3C//DTD SVG 1.1//EN" "http://www.w3.org/Graphics/SVG/1.1/DTD/svg11.dtd">
<!-- Creator: CorelDRAW 2021.5 (Wersja próbna) -->
<svg xmlns="http://www.w3.org/2000/svg" xml:space="preserve" width="90mm" height="50mm" version="1.1" style="shape-rendering:geometricPrecision; text-rendering:geometricPrecision; image-rendering:optimizeQuality; fill-rule:evenodd; clip-rule:evenodd"
viewBox="0 0 9000 5000"
 xmlns:xlink="http://www.w3.org/1999/xlink"
 xmlns:xodm="http://www.corel.com/coreldraw/odm/2003">
 <defs>
  <style type="text/css">
   <![CDATA[
    .str6 {stroke:white;stroke-width:6.03;stroke-miterlimit:22.9256}
    .str1 {stroke:#231F20;stroke-width:108.69;stroke-miterlimit:22.9256}
    .str5 {stroke:white;stroke-width:12.07;stroke-miterlimit:22.9256}
    .str0 {stroke:#FEFEFE;stroke-width:20;stroke-miterlimit:22.9256}
    .str4 {stroke:white;stroke-width:36.22;stroke-linejoin:round;stroke-miterlimit:22.9256}
    .str2 {stroke:white;stroke-width:36.22;stroke-linecap:round;stroke-linejoin:round;stroke-miterlimit:22.9256}
    .str3 {stroke:white;stroke-width:36.22;stroke-linecap:round;stroke-linejoin:bevel;stroke-miterlimit:22.9256}
    .fil11 {fill:none;fill-rule:nonzero}
    .fil0 {fill:#FEFEFE}
    .fil1 {fill:#787CB5}
    .fil2 {fill:#4D3185}
    .fil4 {fill:#FEFEFE;fill-rule:nonzero}
    .fil3 {fill:#1F1B20;fill-rule:nonzero}
    .fil7 {fill:black;fill-rule:nonzero}
    .fil9 {fill:#231F20;fill-rule:nonzero}
    .fil10 {fill:#367FAF;fill-rule:nonzero}
    .fil12 {fill:#417BA2;fill-rule:nonzero}
    .fil6 {fill:#777BB3;fill-rule:nonzero}
    .fil8 {fill:white;fill-rule:nonzero}
    .fil5 {fill:url(#id0);fill-rule:nonzero}
   ]]>
  </style>
  <radialGradient id="id0" gradientUnits="userSpaceOnUse" gradientTransform="matrix(1.56314 -0 -0 -1.56313 -124 8987)" cx="220.47" cy="3506.14" r="7680.98" fx="220.47" fy="3506.14">
   <stop offset="0" style="stop-opacity:1; stop-color:#AEB2D5"/>
   <stop offset="0.301961" style="stop-opacity:1; stop-color:#AEB2D5"/>
   <stop offset="0.74902" style="stop-opacity:1; stop-color:#484C89"/>
   <stop offset="1" style="stop-opacity:1; stop-color:#484C89"/>
  </radialGradient>
 </defs>
 <g id="Warstwa_x0020_1">
  <metadata id="CorelCorpID_0Corel-Layer"/>
  <rect class="fil0 str0" x="-4.27" y="6.13" width="9000" height="5000"/>
  <g id="_1692832812672">
   <path class="fil1" d="M9036.69 -81.5l0 2874.96c-1514.11,-308.69 -1514.11,-308.69 -3028.22,0 -1514.12,308.69 -1514.12,308.69 -3028.23,0 -1514.11,-308.69 -1514.11,-308.69 -3028.22,0l0 -2874.96 9084.67 0z"/>
   <path class="fil2" d="M-47.98 2799.61l0 -205.79c1514.11,-308.69 1514.11,-308.69 3028.22,0 1514.11,308.69 1514.11,308.69 3028.23,0 1514.11,-308.69 1514.11,-308.69 3028.22,0l0 205.79c-1514.11,-308.69 -1514.11,-308.69 -3028.22,0 -1514.12,308.69 -1514.12,308.69 -3028.23,0 -1514.11,-308.69 -1514.11,-308.69 -3028.22,0z"/>
  </g>
  <g id="_1692832807824">
   <path class="fil3" d="M2424.67 1107.47l5.08 42.54 -159.39 354.97c0,0 -1.59,3.6 -4.76,10.79 -3.18,7.2 -6.46,15.77 -9.84,25.72 -3.39,9.95 -5.72,19.37 -6.99,28.26l-6.35 0 -8.89 -40.01 191.14 -422.27zm-390.53 407.03l0 46.36 -70.48 0 0 -6.35c0.42,0 2.22,0 5.39,0 3.18,0 4.77,0 4.77,0 11.43,0 21.59,-3.49 30.48,-10.48 8.89,-6.98 14.18,-16.83 15.87,-29.53l13.97 0zm18.42 10.16c0,0.43 0,0.85 0,1.27 0,0.43 0,1.06 0,1.91 0,6.77 2.43,13.02 7.3,18.73 4.87,5.72 10.69,8.57 17.46,8.57l9.53 0 0 5.72 -38.74 0 0 -36.2 4.45 0zm15.24 -417.19l6.35 0 12.7 37.46 -37.47 415.93 -34.29 0 52.71 -453.39zm6.35 0l182.88 395.6 -14.61 66.68 -180.34 -391.16 12.07 -71.12zm356.23 0l54.61 453.39 -49.53 0 -34.92 -384.81 24.13 -68.58 5.71 0zm35.56 407.03l13.34 0c2.11,12.7 7.62,22.55 16.51,29.53 8.89,6.99 18.83,10.48 29.84,10.48 0,0 1.69,0 5.08,0 3.39,0 5.08,0 5.08,0l0 6.35 -69.85 0 0 -46.36zm-33.65 10.16l4.44 0 0 36.2 -38.73 0 0 -5.72 9.52 0c7.2,0 13.12,-2.85 17.78,-8.57 4.66,-5.71 6.99,-11.96 6.99,-18.73 0,-0.85 0,-1.48 0,-1.91 0,-0.42 0,-0.84 0,-1.27z"/>
   <path id="_1" class="fil3" d="M2773.29 1107.47l187.96 449.58 -53.98 0 -146.68 -389.26 12.7 -60.32zm-136.53 407.03c-2.96,8.47 -3.39,15.67 -1.27,21.59 2.12,5.93 5.61,10.48 10.48,13.66 4.87,3.17 9.84,4.76 14.92,4.76l5.72 0 0 6.35 -127.64 0 0 -6.35c0,0 0.95,0 2.86,0 1.9,0 2.85,0 2.85,0 9.74,0 19.8,-3.07 30.17,-9.21 10.37,-6.14 18.94,-16.4 25.72,-30.8l36.19 0zm136.53 -407.03l5.71 44.45 -159.38 407.03 -38.1 0 162.56 -386.08c0,0 1.16,-2.64 3.49,-7.93 2.33,-5.29 5.08,-11.75 8.25,-19.37 3.18,-7.62 5.93,-15.03 8.26,-22.23 2.33,-7.19 3.49,-12.48 3.49,-15.87l5.72 0zm89.53 280.03l0 19.05 -198.75 0 0 -19.05 198.75 0zm28.58 127l52.07 0c6.35,14.4 14.81,24.66 25.4,30.8 10.58,6.14 20.74,9.21 30.48,9.21 0,0 0.84,0 2.54,0 1.69,0 2.54,0 2.54,0l0 6.35 -142.88 0 0 -6.35 5.72 0c8.04,0 15.24,-3.49 21.59,-10.48 6.35,-6.98 7.19,-16.83 2.54,-29.53z"/>
   <path id="_2" class="fil3" d="M3117.46 1116.36l89.53 0c19.05,0 36.3,2.75 51.75,8.25 15.45,5.51 28.47,13.45 39.06,23.82 10.58,10.37 18.73,22.86 24.44,37.46 5.72,14.61 8.58,31.22 8.58,49.85 0,20.32 -4.77,39.79 -14.29,58.42 -9.53,18.63 -22.44,33.76 -38.74,45.4 -16.3,11.64 -34.6,17.46 -54.92,17.46 7.19,2.97 15.02,9 23.49,18.1 8.47,9.1 15.88,17.89 22.23,26.35 0,0 2.85,4.13 8.57,12.39 5.71,8.25 12.91,18.31 21.59,30.16 8.68,11.85 17.46,23.49 26.35,34.92 8.89,11.43 16.51,20.54 22.86,27.31 8.47,9.31 16.93,17.57 25.4,24.76 8.47,7.2 17.67,12.92 27.62,17.15 9.95,4.23 21.06,6.35 33.34,6.35l0 6.35 -34.92 0c-19.48,0 -36.31,-2.96 -50.49,-8.89 -14.18,-5.93 -26.14,-13.23 -35.87,-21.91 -9.74,-8.68 -18,-17.04 -24.77,-25.08 -1.27,-1.69 -4.76,-6.56 -10.48,-14.61 -5.71,-8.04 -12.49,-17.67 -20.32,-28.89 -7.83,-11.22 -15.55,-22.33 -23.17,-33.34 -7.62,-11 -14.19,-20.42 -19.69,-28.25 -5.5,-7.83 -8.68,-12.39 -9.52,-13.66 -8.05,-10.58 -16.94,-20.32 -26.67,-29.21 -9.74,-8.89 -20.32,-13.33 -31.75,-13.33l0 -6.35c0,0 3.28,0.11 9.84,0.32 6.56,0.21 14.5,0.1 23.81,-0.32 11.01,-0.42 23.07,-2.12 36.2,-5.08 13.12,-2.96 25.4,-9.1 36.83,-18.42 11.43,-9.31 20.1,-23.49 26.03,-42.54 1.27,-4.66 2.33,-10.48 3.18,-17.46 0.84,-6.99 1.05,-13.87 0.63,-20.64 -0.42,-28.79 -7.73,-51.75 -21.91,-68.9 -14.18,-17.14 -33.12,-26.35 -56.83,-27.62 -11.85,-0.85 -24.02,-1.16 -36.51,-0.95 -12.49,0.21 -22.97,0.31 -31.43,0.31 -8.47,0 -12.7,0 -12.7,0 0,-0.42 -0.53,-2.22 -1.59,-5.39 -1.06,-3.18 -2.12,-6.35 -3.18,-9.53 -1.06,-3.17 -1.58,-4.76 -1.58,-4.76zm8.25 0l0 444.5 -41.27 0 0 -444.5 41.27 0zm-39.37 398.14l0 46.36 -50.8 0 0 -6.35c0,0 1.38,0 4.13,0 2.75,0 4.13,0 4.13,0 11,0 20.42,-3.92 28.25,-11.75 7.83,-7.83 11.96,-17.25 12.39,-28.26l1.9 0zm0 -351.79l-1.9 0c-0.43,-11 -4.56,-20.42 -12.39,-28.25 -7.83,-7.83 -17.25,-11.75 -28.25,-11.75 0,0 -1.38,0 -4.13,0 -2.75,0 -4.13,0 -4.13,0l0 -6.35 50.8 0 0 46.35zm37.47 351.79l1.9 0c0,11.01 4.02,20.43 12.07,28.26 8.04,7.83 17.56,11.75 28.57,11.75 0,0 1.27,0 3.81,0 2.54,0 3.81,0 3.81,0l0 6.35 -50.16 0 0 -46.36z"/>
   <path id="_3" class="fil3" d="M3609.58 1118.26l0 442.6 -41.27 0 0 -442.6 41.27 0zm163.2 -2.54l0 19.05 -367.67 0 0 -19.05 367.67 0zm0 17.15l0 51.43 -6.35 -0.63 0 -10.8c0,-10.58 -3.71,-19.47 -11.12,-26.67 -7.41,-7.19 -16.19,-11 -26.35,-11.43l0 -1.9 43.82 0zm0 -28.58l0 18.42 -77.47 -6.99c9.31,0 19.15,-0.63 29.52,-1.9 10.37,-1.27 20.01,-2.75 28.9,-4.45 8.89,-1.69 15.24,-3.38 19.05,-5.08zm-202.57 410.21l0 46.36 -50.8 0 0 -6.35c0,0 1.38,0 4.13,0 2.75,0 4.13,0 4.13,0 11,0 20.42,-3.92 28.25,-11.75 7.83,-7.83 11.96,-17.25 12.39,-28.26l1.9 0zm37.47 0l1.9 0c0.42,11.01 4.55,20.43 12.38,28.26 7.83,7.83 17.25,11.75 28.26,11.75 0,0 1.38,0 4.13,0 2.75,0 4.13,0 4.13,0l0 6.35 -50.8 0 0 -46.36zm-158.75 -381.63l0 1.9c-10.59,0.43 -19.48,4.24 -26.67,11.43 -7.2,7.2 -10.8,16.09 -10.8,26.67l0 10.8 -6.35 0.63 0 -51.43 43.82 0zm-43.82 -28.58c4.23,1.7 10.69,3.39 19.37,5.08 8.68,1.7 18.31,3.18 28.89,4.45 10.58,1.27 20.32,1.9 29.21,1.9l-77.47 6.99 0 -18.42z"/>
   <path id="_4" class="fil3" d="M3913.11 1116.36l0 444.5 -41.27 0 0 -444.5 41.27 0zm-39.37 398.14l0 46.36 -50.8 0 0 -6.35c0,0 1.38,0 4.13,0 2.75,0 4.13,0 4.13,0 11,0 20.42,-3.92 28.25,-11.75 7.83,-7.83 11.96,-17.25 12.39,-28.26l1.9 0zm0 -351.79l-1.9 0c-0.43,-11 -4.56,-20.42 -12.39,-28.25 -7.83,-7.83 -17.25,-11.75 -28.25,-11.75 0,0 -1.38,0 -4.13,0 -2.75,0 -4.13,0 -4.13,0l0 -6.35 50.8 0 0 46.35zm37.47 351.79l1.9 0c0.42,11.01 4.55,20.43 12.38,28.26 7.83,7.83 17.25,11.75 28.26,11.75 0,0 1.27,0 3.81,0 2.54,0 4.02,0 4.45,0l0 6.35 -50.8 0 0 -46.36zm0 -351.79l0 -46.35 50.8 0 0 6.35c-0.43,0 -1.91,0 -4.45,0 -2.54,0 -3.81,0 -3.81,0 -11.01,0 -20.43,3.92 -28.26,11.75 -7.83,7.83 -11.96,17.25 -12.38,28.25l-1.9 0z"/>
   <path id="_5" class="fil3" d="M4079.48 1106.83l368.94 393.7 5.71 69.22 -368.93 -393.07 -5.72 -69.85zm1.27 408.94l0 45.09 -52.7 0 0 -6.35c0,0 1.9,0 5.71,0 3.81,0 5.93,0 6.35,0 10.58,0 19.69,-3.81 27.31,-11.43 7.62,-7.62 11.43,-16.72 11.43,-27.31l1.9 0zm27.31 0c0,10.59 3.81,19.69 11.43,27.31 7.62,7.62 16.72,11.43 27.3,11.43 0.42,0 2.54,0 6.35,0 3.81,0 5.72,0 5.72,0l0 6.35 -52.71 0 0 -45.09 1.91 0zm-28.58 -408.94l27.94 35.56 0.64 418.47 -29.21 0 0 -374.65c0,-21.59 -0.96,-40.22 -2.86,-55.88 -1.91,-15.66 -2.86,-23.5 -2.86,-23.5l6.35 0zm374.65 9.53l0 372.11c0,13.55 0.42,26.56 1.27,39.05 0.85,12.49 1.8,22.65 2.86,30.48 1.06,7.83 1.59,11.75 1.59,11.75l-5.72 0 -28.57 -33.66 0 -419.73 28.57 0zm50.8 0l0 6.35c0,0 -1.9,0 -5.71,0 -3.81,0 -5.72,0 -5.72,0 -10.58,0 -19.68,3.7 -27.3,11.11 -7.62,7.41 -11.65,16.62 -12.07,27.62l-1.9 0 0 -45.08 52.7 0zm-130.81 0l52.71 0 0 45.08 -1.27 0c-0.43,-11 -4.34,-20.21 -11.75,-27.62 -7.41,-7.41 -16.62,-11.11 -27.62,-11.11 0,0 -1.91,0 -5.72,0 -3.81,0 -5.93,0 -6.35,0l0 -6.35z"/>
   <path id="_6" class="fil3" d="M5142.48 1383.06l0 104.77c-9.74,12.7 -22.86,25.4 -39.37,38.1 -16.51,12.7 -36.73,23.18 -60.65,31.44 -23.92,8.25 -51.96,12.38 -84.13,12.38 -44.88,-0.42 -84.46,-10.27 -118.75,-29.53 -34.29,-19.26 -61.07,-46.14 -80.33,-80.64 -19.26,-34.5 -28.89,-74.83 -28.89,-120.97 0,-46.14 9.63,-86.57 28.89,-121.29 19.26,-34.71 46.04,-61.7 80.33,-80.96 34.29,-19.26 73.87,-28.89 118.75,-28.89 23.28,0 44.23,1.9 62.86,5.71 18.63,3.81 35.45,9 50.48,15.56 15.03,6.56 28.68,13.87 40.96,21.91l12.7 89.53 -5.71 0c-6.35,-24.55 -16.83,-45.19 -31.44,-61.91 -14.6,-16.72 -32.91,-29.53 -54.92,-38.42 -22.02,-8.89 -46.99,-13.33 -74.93,-13.33 -35.56,0 -66.89,8.89 -93.98,26.67 -27.1,17.78 -48.26,42.54 -63.5,74.29 -15.24,31.75 -22.86,68.8 -22.86,111.13 0,42.33 7.62,79.37 22.86,111.12 15.24,31.75 36.4,56.41 63.5,73.98 27.09,17.57 58.42,26.57 93.98,26.99 18.62,0 36.51,-2.22 53.65,-6.67 17.15,-4.44 33.34,-10.79 48.58,-19.05 15.24,-8.25 28.79,-18.1 40.64,-29.53l0.64 -112.39c0,-19.05 -10.8,-28.58 -32.39,-28.58l-10.16 0 0 -6.35 124.46 0 0 6.35 -9.52 0c-22.02,0 -32.6,9.53 -31.75,28.58z"/>
   <path id="_7" class="fil3" d="M5311.39 1116.36l0 444.5 -41.27 0 0 -444.5 41.27 0zm171.45 424.81l0 19.69 -173.35 0 0 -19.69 173.35 0zm38.74 -83.18l-36.83 102.87 -105.41 0 22.86 -19.69c22.43,0 40.74,-3.49 54.92,-10.47 14.18,-6.99 25.72,-16.83 34.61,-29.53 8.89,-12.7 16.72,-27.09 23.5,-43.18l6.35 0zm-249.56 56.51l0 46.36 -50.8 0 0 -6.35c0,0 1.38,0 4.13,0 2.75,0 4.13,0 4.13,0 11,0 20.42,-3.92 28.25,-11.75 7.83,-7.83 11.96,-17.25 12.39,-28.26l1.9 0zm0 -351.79l-1.9 0c-0.43,-11 -4.56,-20.42 -12.39,-28.25 -7.83,-7.83 -17.25,-11.75 -28.25,-11.75 0,0 -1.38,0 -4.13,0 -2.75,0 -4.13,0 -4.13,0l0 -6.35 50.8 0 0 46.35zm37.47 0l0 -46.35 50.8 0 0 6.35c-0.43,0 -1.91,0 -4.45,0 -2.54,0 -3.81,0 -3.81,0 -11.01,0 -20.43,3.92 -28.26,11.75 -7.83,7.83 -11.96,17.25 -12.38,28.25l-1.9 0z"/>
   <path id="_8" class="fil3" d="M5767.96 1107.47l187.96 449.58 -53.98 0 -146.68 -389.26 12.7 -60.32zm-136.53 407.03c-2.96,8.47 -3.39,15.67 -1.27,21.59 2.12,5.93 5.61,10.48 10.48,13.66 4.87,3.17 9.84,4.76 14.92,4.76l5.72 0 0 6.35 -127.64 0 0 -6.35c0,0 0.95,0 2.86,0 1.9,0 2.85,0 2.85,0 9.74,0 19.8,-3.07 30.17,-9.21 10.37,-6.14 18.94,-16.4 25.72,-30.8l36.19 0zm136.53 -407.03l5.71 44.45 -159.38 407.03 -38.1 0 162.56 -386.08c0,0 1.16,-2.64 3.49,-7.93 2.33,-5.29 5.08,-11.75 8.25,-19.37 3.18,-7.62 5.93,-15.03 8.26,-22.23 2.33,-7.19 3.49,-12.48 3.49,-15.87l5.72 0zm89.53 280.03l0 19.05 -198.75 0 0 -19.05 198.75 0zm28.58 127l52.07 0c6.35,14.4 14.81,24.66 25.4,30.8 10.58,6.14 20.74,9.21 30.48,9.21 0,0 0.84,0 2.54,0 1.69,0 2.54,0 2.54,0l0 6.35 -142.88 0 0 -6.35 5.72 0c8.04,0 15.24,-3.49 21.59,-10.48 6.35,-6.98 7.19,-16.83 2.54,-29.53z"/>
   <path id="_9" class="fil3" d="M6245.48 1116.36c45.29,0 84.98,9.21 119.06,27.62 34.08,18.42 60.75,44.35 80.01,77.79 19.26,33.44 28.89,72.39 28.89,116.84 0,44.45 -9.63,83.29 -28.89,116.52 -19.26,33.23 -45.93,59.16 -80.01,77.79 -34.08,18.63 -73.77,27.94 -119.06,27.94l-135.89 0 -0.64 -19.05c0,0 4.55,0 13.65,0 9.1,0 20.53,0 34.29,0 13.76,0 27.41,0 40.96,0 13.55,0 24.87,0 33.97,0 9.1,0 13.66,0 13.66,0 36.4,0 68.05,-8.47 94.93,-25.4 26.88,-16.93 47.83,-40.64 62.86,-71.12 15.03,-30.48 22.55,-66.04 22.55,-106.68 0,-40.64 -7.52,-76.2 -22.55,-106.68 -15.03,-30.48 -36.09,-54.19 -63.18,-71.12 -27.09,-16.93 -58.63,-25.4 -94.61,-25.4 0,0 -4.77,0 -14.29,0 -9.53,0 -21.38,0 -35.56,0 -14.18,0 -28.37,0 -42.55,0 -14.18,0 -26.14,0 -35.87,0 -9.74,0 -14.61,0 -14.61,0l0 -19.05 142.88 0zm-125.1 0l0 444.5 -41.27 0 0 -444.5 41.27 0zm-39.37 398.14l0 46.36 -50.8 0 0 -6.35c0,0 1.38,0 4.13,0 2.75,0 4.13,0 4.13,0 11,0 20.42,-3.92 28.25,-11.75 7.83,-7.83 11.96,-17.25 12.39,-28.26l1.9 0zm0 -351.79l-1.9 0c0,-11 -4.03,-20.42 -12.07,-28.25 -8.04,-7.83 -17.57,-11.75 -28.57,-11.75 0,0 -1.27,0 -3.81,0 -2.54,0 -3.81,0 -3.81,0l-0.64 -6.35 50.8 0 0 46.35z"/>
   <path id="_10" class="fil3" d="M6620.13 1116.36l0 444.5 -41.27 0 0 -444.5 41.27 0zm-39.37 398.14l0 46.36 -50.8 0 0 -6.35c0,0 1.38,0 4.13,0 2.75,0 4.13,0 4.13,0 11,0 20.42,-3.92 28.25,-11.75 7.83,-7.83 11.96,-17.25 12.39,-28.26l1.9 0zm0 -351.79l-1.9 0c-0.43,-11 -4.56,-20.42 -12.39,-28.25 -7.83,-7.83 -17.25,-11.75 -28.25,-11.75 0,0 -1.38,0 -4.13,0 -2.75,0 -4.13,0 -4.13,0l0 -6.35 50.8 0 0 46.35zm37.47 351.79l1.9 0c0.42,11.01 4.55,20.43 12.38,28.26 7.83,7.83 17.25,11.75 28.26,11.75 0,0 1.27,0 3.81,0 2.54,0 4.02,0 4.45,0l0 6.35 -50.8 0 0 -46.36zm0 -351.79l0 -46.35 50.8 0 0 6.35c-0.43,0 -1.91,0 -4.45,0 -2.54,0 -3.81,0 -3.81,0 -11.01,0 -20.43,3.92 -28.26,11.75 -7.83,7.83 -11.96,17.25 -12.38,28.25l-1.9 0z"/>
   <path id="_11" class="fil3" d="M6865.88 1107.47c6.77,0 14.07,0.42 21.9,1.27 7.83,0.85 15.45,2.01 22.86,3.49 7.41,1.48 14.18,2.97 20.32,4.45 6.14,1.48 10.9,3.07 14.29,4.76l0 70.48 -5.71 0c0,-20.32 -6.99,-36.3 -20.96,-47.94 -13.97,-11.64 -30.9,-17.46 -50.8,-17.46 -23.28,0 -42.12,7.3 -56.51,21.91 -14.4,14.6 -21.59,31.64 -21.59,51.11 0,8.05 1.79,17.47 5.39,28.26 3.6,10.8 10.27,20.85 20.01,30.16l125.09 115.57c12.7,11.86 21.17,24.56 25.4,38.1 4.23,13.55 6.35,26.67 6.35,39.37 0,35.14 -10.69,63.72 -32.07,85.73 -21.38,22.01 -50.27,33.02 -86.67,33.02 -10.16,0 -22.12,-1.06 -35.88,-3.17 -13.76,-2.12 -27.1,-5.83 -40.01,-11.12 -12.91,-5.29 -23.6,-12.17 -32.06,-20.64 -1.27,-6.77 -1.91,-15.24 -1.91,-25.4 0,-10.16 0.85,-20.84 2.54,-32.06 1.69,-11.22 4.02,-21.49 6.99,-30.8l5.71 0c-2.12,21.59 0.64,40.43 8.26,56.51 7.62,16.09 18.73,28.26 33.33,36.52 14.61,8.25 31.22,11.96 49.85,11.11 23.28,-1.27 43.29,-9.42 60.01,-24.45 16.72,-15.03 25.08,-35.24 25.08,-60.64 0,-12.28 -2.12,-23.39 -6.35,-33.34 -4.23,-9.95 -10.37,-18.52 -18.41,-25.72l-121.92 -113.03c-12.7,-11.85 -21.59,-24.87 -26.67,-39.05 -5.08,-14.18 -7.62,-27.41 -7.62,-39.69 0,-17.78 4.23,-34.92 12.7,-51.43 8.46,-16.51 21.06,-29.95 37.78,-40.32 16.72,-10.37 37.15,-15.56 61.28,-15.56zm79.37 6.35l0 13.33 -48.26 0 0 -13.33 48.26 0z"/>
   <path class="fil4" d="M2452.61 1095.04l5.08 42.54 -159.39 354.97c0,0 -1.59,3.6 -4.76,10.79 -3.18,7.2 -6.46,15.77 -9.84,25.72 -3.39,9.95 -5.72,19.37 -6.99,28.26l-6.35 0 -8.89 -40.01 191.14 -422.27zm-390.53 407.03l0 46.36 -70.48 0 0 -6.35c0.42,0 2.22,0 5.39,0 3.18,0 4.77,0 4.77,0 11.43,0 21.59,-3.49 30.48,-10.48 8.89,-6.98 14.18,-16.83 15.87,-29.53l13.97 0zm18.42 10.16c0,0.43 0,0.85 0,1.27 0,0.43 0,1.06 0,1.91 0,6.77 2.43,13.02 7.3,18.73 4.87,5.72 10.69,8.57 17.46,8.57l9.53 0 0 5.72 -38.74 0 0 -36.2 4.45 0zm15.24 -417.19l6.35 0 12.7 37.46 -37.47 415.93 -34.29 0 52.71 -453.39zm6.35 0l182.88 395.6 -14.61 66.68 -180.34 -391.16 12.07 -71.12zm356.23 0l54.61 453.39 -49.53 0 -34.92 -384.81 24.13 -68.58 5.71 0zm35.56 407.03l13.34 0c2.11,12.7 7.62,22.55 16.51,29.53 8.89,6.99 18.83,10.48 29.84,10.48 0,0 1.69,0 5.08,0 3.39,0 5.08,0 5.08,0l0 6.35 -69.85 0 0 -46.36zm-33.65 10.16l4.44 0 0 36.2 -38.73 0 0 -5.72 9.52 0c7.2,0 13.12,-2.85 17.78,-8.57 4.66,-5.71 6.99,-11.96 6.99,-18.73 0,-0.85 0,-1.48 0,-1.91 0,-0.42 0,-0.84 0,-1.27z"/>
   <path id="_1_0" class="fil4" d="M2801.23 1095.04l187.96 449.58 -53.98 0 -146.68 -389.26 12.7 -60.32zm-136.53 407.03c-2.96,8.47 -3.39,15.67 -1.27,21.59 2.12,5.93 5.61,10.48 10.48,13.66 4.87,3.17 9.84,4.76 14.92,4.76l5.72 0 0 6.35 -127.64 0 0 -6.35c0,0 0.95,0 2.86,0 1.9,0 2.85,0 2.85,0 9.74,0 19.8,-3.07 30.17,-9.21 10.37,-6.14 18.94,-16.4 25.72,-30.8l36.19 0zm136.53 -407.03l5.71 44.45 -159.38 407.03 -38.1 0 162.56 -386.08c0,0 1.16,-2.64 3.49,-7.93 2.33,-5.29 5.08,-11.75 8.25,-19.37 3.18,-7.62 5.93,-15.03 8.26,-22.23 2.33,-7.19 3.49,-12.48 3.49,-15.87l5.72 0zm89.53 280.03l0 19.05 -198.75 0 0 -19.05 198.75 0zm28.58 127l52.07 0c6.35,14.4 14.81,24.66 25.4,30.8 10.58,6.14 20.74,9.21 30.48,9.21 0,0 0.84,0 2.54,0 1.69,0 2.54,0 2.54,0l0 6.35 -142.88 0 0 -6.35 5.72 0c8.04,0 15.24,-3.49 21.59,-10.48 6.35,-6.98 7.19,-16.83 2.54,-29.53z"/>
   <path id="_2_1" class="fil4" d="M3145.4 1103.93l89.53 0c19.05,0 36.3,2.75 51.75,8.25 15.45,5.51 28.47,13.45 39.06,23.82 10.58,10.37 18.73,22.86 24.44,37.46 5.72,14.61 8.58,31.22 8.58,49.85 0,20.32 -4.77,39.79 -14.29,58.42 -9.53,18.63 -22.44,33.76 -38.74,45.4 -16.3,11.64 -34.6,17.46 -54.92,17.46 7.19,2.97 15.02,9 23.49,18.1 8.47,9.1 15.88,17.89 22.23,26.35 0,0 2.85,4.13 8.57,12.39 5.71,8.25 12.91,18.31 21.59,30.16 8.68,11.85 17.46,23.49 26.35,34.92 8.89,11.43 16.51,20.54 22.86,27.31 8.47,9.31 16.93,17.57 25.4,24.76 8.47,7.2 17.67,12.92 27.62,17.15 9.95,4.23 21.06,6.35 33.34,6.35l0 6.35 -34.92 0c-19.48,0 -36.31,-2.96 -50.49,-8.89 -14.18,-5.93 -26.14,-13.23 -35.87,-21.91 -9.74,-8.68 -18,-17.04 -24.77,-25.08 -1.27,-1.69 -4.76,-6.56 -10.48,-14.61 -5.71,-8.04 -12.49,-17.67 -20.32,-28.89 -7.83,-11.22 -15.55,-22.33 -23.17,-33.34 -7.62,-11 -14.19,-20.42 -19.69,-28.25 -5.5,-7.83 -8.68,-12.39 -9.52,-13.66 -8.05,-10.58 -16.94,-20.32 -26.67,-29.21 -9.74,-8.89 -20.32,-13.33 -31.75,-13.33l0 -6.35c0,0 3.28,0.11 9.84,0.32 6.56,0.21 14.5,0.1 23.81,-0.32 11.01,-0.42 23.07,-2.12 36.2,-5.08 13.12,-2.96 25.4,-9.1 36.83,-18.42 11.43,-9.31 20.1,-23.49 26.03,-42.54 1.27,-4.66 2.33,-10.48 3.18,-17.46 0.84,-6.99 1.05,-13.87 0.63,-20.64 -0.42,-28.79 -7.73,-51.75 -21.91,-68.9 -14.18,-17.14 -33.12,-26.35 -56.83,-27.62 -11.85,-0.85 -24.02,-1.16 -36.51,-0.95 -12.49,0.21 -22.97,0.31 -31.43,0.31 -8.47,0 -12.7,0 -12.7,0 0,-0.42 -0.53,-2.22 -1.59,-5.39 -1.06,-3.18 -2.12,-6.35 -3.18,-9.53 -1.06,-3.17 -1.58,-4.76 -1.58,-4.76zm8.25 0l0 444.5 -41.27 0 0 -444.5 41.27 0zm-39.37 398.14l0 46.36 -50.8 0 0 -6.35c0,0 1.38,0 4.13,0 2.75,0 4.13,0 4.13,0 11,0 20.42,-3.92 28.25,-11.75 7.83,-7.83 11.96,-17.25 12.39,-28.26l1.9 0zm0 -351.79l-1.9 0c-0.43,-11 -4.56,-20.42 -12.39,-28.25 -7.83,-7.83 -17.25,-11.75 -28.25,-11.75 0,0 -1.38,0 -4.13,0 -2.75,0 -4.13,0 -4.13,0l0 -6.35 50.8 0 0 46.35zm37.47 351.79l1.9 0c0,11.01 4.02,20.43 12.07,28.26 8.04,7.83 17.56,11.75 28.57,11.75 0,0 1.27,0 3.81,0 2.54,0 3.81,0 3.81,0l0 6.35 -50.16 0 0 -46.36z"/>
   <path id="_3_2" class="fil4" d="M3637.52 1105.83l0 442.6 -41.27 0 0 -442.6 41.27 0zm163.2 -2.54l0 19.05 -367.67 0 0 -19.05 367.67 0zm0 17.15l0 51.43 -6.35 -0.63 0 -10.8c0,-10.58 -3.71,-19.47 -11.12,-26.67 -7.41,-7.19 -16.19,-11 -26.35,-11.43l0 -1.9 43.82 0zm0 -28.58l0 18.42 -77.47 -6.99c9.31,0 19.15,-0.63 29.52,-1.9 10.37,-1.27 20.01,-2.75 28.9,-4.45 8.89,-1.69 15.24,-3.38 19.05,-5.08zm-202.57 410.21l0 46.36 -50.8 0 0 -6.35c0,0 1.38,0 4.13,0 2.75,0 4.13,0 4.13,0 11,0 20.42,-3.92 28.25,-11.75 7.83,-7.83 11.96,-17.25 12.39,-28.26l1.9 0zm37.47 0l1.9 0c0.42,11.01 4.55,20.43 12.38,28.26 7.83,7.83 17.25,11.75 28.26,11.75 0,0 1.38,0 4.13,0 2.75,0 4.13,0 4.13,0l0 6.35 -50.8 0 0 -46.36zm-158.75 -381.63l0 1.9c-10.59,0.43 -19.48,4.24 -26.67,11.43 -7.2,7.2 -10.8,16.09 -10.8,26.67l0 10.8 -6.35 0.63 0 -51.43 43.82 0zm-43.82 -28.58c4.23,1.7 10.69,3.39 19.37,5.08 8.68,1.7 18.31,3.18 28.89,4.45 10.58,1.27 20.32,1.9 29.21,1.9l-77.47 6.99 0 -18.42z"/>
   <path id="_4_3" class="fil4" d="M3941.05 1103.93l0 444.5 -41.27 0 0 -444.5 41.27 0zm-39.37 398.14l0 46.36 -50.8 0 0 -6.35c0,0 1.38,0 4.13,0 2.75,0 4.13,0 4.13,0 11,0 20.42,-3.92 28.25,-11.75 7.83,-7.83 11.96,-17.25 12.39,-28.26l1.9 0zm0 -351.79l-1.9 0c-0.43,-11 -4.56,-20.42 -12.39,-28.25 -7.83,-7.83 -17.25,-11.75 -28.25,-11.75 0,0 -1.38,0 -4.13,0 -2.75,0 -4.13,0 -4.13,0l0 -6.35 50.8 0 0 46.35zm37.47 351.79l1.9 0c0.42,11.01 4.55,20.43 12.38,28.26 7.83,7.83 17.25,11.75 28.26,11.75 0,0 1.27,0 3.81,0 2.54,0 4.02,0 4.45,0l0 6.35 -50.8 0 0 -46.36zm0 -351.79l0 -46.35 50.8 0 0 6.35c-0.43,0 -1.91,0 -4.45,0 -2.54,0 -3.81,0 -3.81,0 -11.01,0 -20.43,3.92 -28.26,11.75 -7.83,7.83 -11.96,17.25 -12.38,28.25l-1.9 0z"/>
   <path id="_5_4" class="fil4" d="M4107.42 1094.4l368.94 393.7 5.71 69.22 -368.93 -393.07 -5.72 -69.85zm1.27 408.94l0 45.09 -52.7 0 0 -6.35c0,0 1.9,0 5.71,0 3.81,0 5.93,0 6.35,0 10.58,0 19.69,-3.81 27.31,-11.43 7.62,-7.62 11.43,-16.72 11.43,-27.31l1.9 0zm27.31 0c0,10.59 3.81,19.69 11.43,27.31 7.62,7.62 16.72,11.43 27.3,11.43 0.42,0 2.54,0 6.35,0 3.81,0 5.72,0 5.72,0l0 6.35 -52.71 0 0 -45.09 1.91 0zm-28.58 -408.94l27.94 35.56 0.64 418.47 -29.21 0 0 -374.65c0,-21.59 -0.96,-40.22 -2.86,-55.88 -1.91,-15.66 -2.86,-23.5 -2.86,-23.5l6.35 0zm374.65 9.53l0 372.11c0,13.55 0.42,26.56 1.27,39.05 0.85,12.49 1.8,22.65 2.86,30.48 1.06,7.83 1.59,11.75 1.59,11.75l-5.72 0 -28.57 -33.66 0 -419.73 28.57 0zm50.8 0l0 6.35c0,0 -1.9,0 -5.71,0 -3.81,0 -5.72,0 -5.72,0 -10.58,0 -19.68,3.7 -27.3,11.11 -7.62,7.41 -11.65,16.62 -12.07,27.62l-1.9 0 0 -45.08 52.7 0zm-130.81 0l52.71 0 0 45.08 -1.27 0c-0.43,-11 -4.34,-20.21 -11.75,-27.62 -7.41,-7.41 -16.62,-11.11 -27.62,-11.11 0,0 -1.91,0 -5.72,0 -3.81,0 -5.93,0 -6.35,0l0 -6.35z"/>
   <path id="_6_5" class="fil4" d="M5170.42 1370.63l0 104.77c-9.74,12.7 -22.86,25.4 -39.37,38.1 -16.51,12.7 -36.73,23.18 -60.65,31.44 -23.92,8.25 -51.96,12.38 -84.13,12.38 -44.88,-0.42 -84.46,-10.27 -118.75,-29.53 -34.29,-19.26 -61.07,-46.14 -80.33,-80.64 -19.26,-34.5 -28.89,-74.83 -28.89,-120.97 0,-46.14 9.63,-86.57 28.89,-121.29 19.26,-34.71 46.04,-61.7 80.33,-80.96 34.29,-19.26 73.87,-28.89 118.75,-28.89 23.28,0 44.23,1.9 62.86,5.71 18.63,3.81 35.45,9 50.48,15.56 15.03,6.56 28.68,13.87 40.96,21.91l12.7 89.53 -5.71 0c-6.35,-24.55 -16.83,-45.19 -31.44,-61.91 -14.6,-16.72 -32.91,-29.53 -54.92,-38.42 -22.02,-8.89 -46.99,-13.33 -74.93,-13.33 -35.56,0 -66.89,8.89 -93.98,26.67 -27.1,17.78 -48.26,42.54 -63.5,74.29 -15.24,31.75 -22.86,68.8 -22.86,111.13 0,42.33 7.62,79.37 22.86,111.12 15.24,31.75 36.4,56.41 63.5,73.98 27.09,17.57 58.42,26.57 93.98,26.99 18.62,0 36.51,-2.22 53.65,-6.67 17.15,-4.44 33.34,-10.79 48.58,-19.05 15.24,-8.25 28.79,-18.1 40.64,-29.53l0.64 -112.39c0,-19.05 -10.8,-28.58 -32.39,-28.58l-10.16 0 0 -6.35 124.46 0 0 6.35 -9.52 0c-22.02,0 -32.6,9.53 -31.75,28.58z"/>
   <path id="_7_6" class="fil4" d="M5339.33 1103.93l0 444.5 -41.27 0 0 -444.5 41.27 0zm171.45 424.81l0 19.69 -173.35 0 0 -19.69 173.35 0zm38.74 -83.18l-36.83 102.87 -105.41 0 22.86 -19.69c22.43,0 40.74,-3.49 54.92,-10.47 14.18,-6.99 25.72,-16.83 34.61,-29.53 8.89,-12.7 16.72,-27.09 23.5,-43.18l6.35 0zm-249.56 56.51l0 46.36 -50.8 0 0 -6.35c0,0 1.38,0 4.13,0 2.75,0 4.13,0 4.13,0 11,0 20.42,-3.92 28.25,-11.75 7.83,-7.83 11.96,-17.25 12.39,-28.26l1.9 0zm0 -351.79l-1.9 0c-0.43,-11 -4.56,-20.42 -12.39,-28.25 -7.83,-7.83 -17.25,-11.75 -28.25,-11.75 0,0 -1.38,0 -4.13,0 -2.75,0 -4.13,0 -4.13,0l0 -6.35 50.8 0 0 46.35zm37.47 0l0 -46.35 50.8 0 0 6.35c-0.43,0 -1.91,0 -4.45,0 -2.54,0 -3.81,0 -3.81,0 -11.01,0 -20.43,3.92 -28.26,11.75 -7.83,7.83 -11.96,17.25 -12.38,28.25l-1.9 0z"/>
   <path id="_8_7" class="fil4" d="M5795.9 1095.04l187.96 449.58 -53.98 0 -146.68 -389.26 12.7 -60.32zm-136.53 407.03c-2.96,8.47 -3.39,15.67 -1.27,21.59 2.12,5.93 5.61,10.48 10.48,13.66 4.87,3.17 9.84,4.76 14.92,4.76l5.72 0 0 6.35 -127.64 0 0 -6.35c0,0 0.95,0 2.86,0 1.9,0 2.85,0 2.85,0 9.74,0 19.8,-3.07 30.17,-9.21 10.37,-6.14 18.94,-16.4 25.72,-30.8l36.19 0zm136.53 -407.03l5.71 44.45 -159.38 407.03 -38.1 0 162.56 -386.08c0,0 1.16,-2.64 3.49,-7.93 2.33,-5.29 5.08,-11.75 8.25,-19.37 3.18,-7.62 5.93,-15.03 8.26,-22.23 2.33,-7.19 3.49,-12.48 3.49,-15.87l5.72 0zm89.53 280.03l0 19.05 -198.75 0 0 -19.05 198.75 0zm28.58 127l52.07 0c6.35,14.4 14.81,24.66 25.4,30.8 10.58,6.14 20.74,9.21 30.48,9.21 0,0 0.84,0 2.54,0 1.69,0 2.54,0 2.54,0l0 6.35 -142.88 0 0 -6.35 5.72 0c8.04,0 15.24,-3.49 21.59,-10.48 6.35,-6.98 7.19,-16.83 2.54,-29.53z"/>
   <path id="_9_8" class="fil4" d="M6273.42 1103.93c45.29,0 84.98,9.21 119.06,27.62 34.08,18.42 60.75,44.35 80.01,77.79 19.26,33.44 28.89,72.39 28.89,116.84 0,44.45 -9.63,83.29 -28.89,116.52 -19.26,33.23 -45.93,59.16 -80.01,77.79 -34.08,18.63 -73.77,27.94 -119.06,27.94l-135.89 0 -0.64 -19.05c0,0 4.55,0 13.65,0 9.1,0 20.53,0 34.29,0 13.76,0 27.41,0 40.96,0 13.55,0 24.87,0 33.97,0 9.1,0 13.66,0 13.66,0 36.4,0 68.05,-8.47 94.93,-25.4 26.88,-16.93 47.83,-40.64 62.86,-71.12 15.03,-30.48 22.55,-66.04 22.55,-106.68 0,-40.64 -7.52,-76.2 -22.55,-106.68 -15.03,-30.48 -36.09,-54.19 -63.18,-71.12 -27.09,-16.93 -58.63,-25.4 -94.61,-25.4 0,0 -4.77,0 -14.29,0 -9.53,0 -21.38,0 -35.56,0 -14.18,0 -28.37,0 -42.55,0 -14.18,0 -26.14,0 -35.87,0 -9.74,0 -14.61,0 -14.61,0l0 -19.05 142.88 0zm-125.1 0l0 444.5 -41.27 0 0 -444.5 41.27 0zm-39.37 398.14l0 46.36 -50.8 0 0 -6.35c0,0 1.38,0 4.13,0 2.75,0 4.13,0 4.13,0 11,0 20.42,-3.92 28.25,-11.75 7.83,-7.83 11.96,-17.25 12.39,-28.26l1.9 0zm0 -351.79l-1.9 0c0,-11 -4.03,-20.42 -12.07,-28.25 -8.04,-7.83 -17.57,-11.75 -28.57,-11.75 0,0 -1.27,0 -3.81,0 -2.54,0 -3.81,0 -3.81,0l-0.64 -6.35 50.8 0 0 46.35z"/>
   <path id="_10_9" class="fil4" d="M6648.07 1103.93l0 444.5 -41.27 0 0 -444.5 41.27 0zm-39.37 398.14l0 46.36 -50.8 0 0 -6.35c0,0 1.38,0 4.13,0 2.75,0 4.13,0 4.13,0 11,0 20.42,-3.92 28.25,-11.75 7.83,-7.83 11.96,-17.25 12.39,-28.26l1.9 0zm0 -351.79l-1.9 0c-0.43,-11 -4.56,-20.42 -12.39,-28.25 -7.83,-7.83 -17.25,-11.75 -28.25,-11.75 0,0 -1.38,0 -4.13,0 -2.75,0 -4.13,0 -4.13,0l0 -6.35 50.8 0 0 46.35zm37.47 351.79l1.9 0c0.42,11.01 4.55,20.43 12.38,28.26 7.83,7.83 17.25,11.75 28.26,11.75 0,0 1.27,0 3.81,0 2.54,0 4.02,0 4.45,0l0 6.35 -50.8 0 0 -46.36zm0 -351.79l0 -46.35 50.8 0 0 6.35c-0.43,0 -1.91,0 -4.45,0 -2.54,0 -3.81,0 -3.81,0 -11.01,0 -20.43,3.92 -28.26,11.75 -7.83,7.83 -11.96,17.25 -12.38,28.25l-1.9 0z"/>
   <path id="_11_10" class="fil4" d="M6893.82 1095.04c6.77,0 14.07,0.42 21.9,1.27 7.83,0.85 15.45,2.01 22.86,3.49 7.41,1.48 14.18,2.97 20.32,4.45 6.14,1.48 10.9,3.07 14.29,4.76l0 70.48 -5.71 0c0,-20.32 -6.99,-36.3 -20.96,-47.94 -13.97,-11.64 -30.9,-17.46 -50.8,-17.46 -23.28,0 -42.12,7.3 -56.51,21.91 -14.4,14.6 -21.59,31.64 -21.59,51.11 0,8.05 1.79,17.47 5.39,28.26 3.6,10.8 10.27,20.85 20.01,30.16l125.09 115.57c12.7,11.86 21.17,24.56 25.4,38.1 4.23,13.55 6.35,26.67 6.35,39.37 0,35.14 -10.69,63.72 -32.07,85.73 -21.38,22.01 -50.27,33.02 -86.67,33.02 -10.16,0 -22.12,-1.06 -35.88,-3.17 -13.76,-2.12 -27.1,-5.83 -40.01,-11.12 -12.91,-5.29 -23.6,-12.17 -32.06,-20.64 -1.27,-6.77 -1.91,-15.24 -1.91,-25.4 0,-10.16 0.85,-20.84 2.54,-32.06 1.69,-11.22 4.02,-21.49 6.99,-30.8l5.71 0c-2.12,21.59 0.64,40.43 8.26,56.51 7.62,16.09 18.73,28.26 33.33,36.52 14.61,8.25 31.22,11.96 49.85,11.11 23.28,-1.27 43.29,-9.42 60.01,-24.45 16.72,-15.03 25.08,-35.24 25.08,-60.64 0,-12.28 -2.12,-23.39 -6.35,-33.34 -4.23,-9.95 -10.37,-18.52 -18.41,-25.72l-121.92 -113.03c-12.7,-11.85 -21.59,-24.87 -26.67,-39.05 -5.08,-14.18 -7.62,-27.41 -7.62,-39.69 0,-17.78 4.23,-34.92 12.7,-51.43 8.46,-16.51 21.06,-29.95 37.78,-40.32 16.72,-10.37 37.15,-15.56 61.28,-15.56zm79.37 6.35l0 13.33 -48.26 0 0 -13.33 48.26 0z"/>
  </g>
  <g id="_1692832804848">
   <path class="fil3" d="M3178.93 1928.71l39.16 0c16.47,0 30.7,2.41 42.69,7.23 11.99,4.83 21.28,11.76 27.87,20.82 6.58,9.05 9.88,19.81 9.88,32.28 0,13.4 -3,24.87 -9,34.39 -6,9.53 -13.93,16.82 -23.81,21.88 -9.88,5.05 -20.82,7.52 -32.81,7.4 -11.99,-0.11 -23.99,-3.11 -35.98,-8.99l0 -3.53c0,0 1.94,0.35 5.82,1.06 3.88,0.7 8.88,1 14.99,0.88 6.12,-0.12 12.58,-1.18 19.4,-3.17 6.82,-2 13.23,-5.71 19.23,-11.12 6,-5.41 10.76,-13.17 14.29,-23.28 0.94,-2.59 1.59,-5.64 1.94,-9.17 0.35,-3.53 0.53,-6.82 0.53,-9.88 0,-14.35 -4.94,-25.64 -14.82,-33.87 -9.88,-8.23 -23.52,-12.34 -40.92,-12.34l-34.57 0c0,0 -0.3,-0.89 -0.89,-2.65 -0.58,-1.76 -1.23,-3.53 -1.94,-5.29 -0.7,-1.77 -1.06,-2.65 -1.06,-2.65zm4.59 0l0 211.67 -22.58 0 0 -211.67 22.58 0zm-21.87 189.09l4.58 22.58 -30.69 0 0 -3.53c0,0 0.83,0 2.47,0 1.65,0 2.47,0 2.47,0 5.65,0 10.41,-1.88 14.29,-5.64 3.88,-3.77 5.94,-8.23 6.17,-13.41l0.71 0zm0 -166.86l-0.71 0c-0.23,-5.41 -2.29,-9.88 -6.17,-13.41 -3.88,-3.53 -8.64,-5.29 -14.29,-5.29 0,0 -0.82,0 -2.47,0 -1.64,0 -2.47,0 -2.47,0l0 -3.53 30.69 0 -4.58 22.23zm20.81 166.86l0.71 0c0.23,5.18 2.29,9.64 6.17,13.41 3.88,3.76 8.64,5.64 14.29,5.64 0.23,0 1.12,0 2.65,0 1.52,0 2.29,0 2.29,0l0 3.53 -30.69 0 4.58 -22.58z"/>
   <path id="_1_11" class="fil3" d="M3530.66 1928.71l0 211.67 -22.58 0 0 -211.67 22.58 0zm-152.75 0l0 211.67 -22.58 0 0 -211.67 22.58 0zm133.7 101.96l0 10.58 -137.59 0 0 -10.58 137.59 0zm-155.22 87.13l0 22.58 -25.76 0 0 -3.53c0,0 0.71,0 2.12,0 1.41,0 2.12,0 2.12,0 5.64,0 10.4,-1.88 14.28,-5.64 3.88,-3.77 5.94,-8.23 6.18,-13.41l1.06 0zm20.46 0l1.06 0c0,5.18 1.99,9.64 5.99,13.41 4,3.76 8.82,5.64 14.47,5.64 0,0 0.7,0 2.11,0 1.41,0 2.12,0 2.12,0l0 3.53 -25.75 0 0 -22.58zm0 -166.51l0 -22.58 25.75 0 0 3.53c0,0 -0.71,0 -2.12,0 -1.41,0 -2.11,0 -2.11,0 -5.65,0 -10.47,1.82 -14.47,5.47 -4,3.64 -5.99,8.17 -5.99,13.58l-1.06 0zm-20.46 0l-1.06 0c-0.24,-5.41 -2.3,-9.94 -6.18,-13.58 -3.88,-3.65 -8.64,-5.47 -14.28,-5.47 0,0 -0.71,0 -2.12,0 -1.41,0 -2.12,0 -2.12,0l0 -3.53 25.76 0 0 22.58zm152.75 166.51l0 22.58 -25.75 0 0 -3.53c0,0 0.7,0 2.11,0 1.41,0 2.12,0 2.12,0 5.64,0 10.41,-1.88 14.29,-5.64 3.88,-3.77 5.94,-8.23 6.17,-13.41l1.06 0zm20.46 0l1.06 0c0.23,5.18 2.29,9.64 6.17,13.41 3.88,3.76 8.65,5.64 14.29,5.64 0,0 0.71,0 2.12,0 1.41,0 2.11,0 2.11,0l0 3.53 -25.75 0 0 -22.58zm0 -166.51l0 -22.58 25.75 0 0 3.53c0,0 -0.7,0 -2.11,0 -1.41,0 -2.12,0 -2.12,0 -5.64,0 -10.41,1.82 -14.29,5.47 -3.88,3.64 -5.94,8.17 -6.17,13.58l-1.06 0zm-20.46 0l-1.06 0c-0.23,-5.41 -2.29,-9.94 -6.17,-13.58 -3.88,-3.65 -8.65,-5.47 -14.29,-5.47 0,0 -0.71,0 -2.12,0 -1.41,0 -2.11,0 -2.11,0l0 -3.53 25.75 0 0 22.58z"/>
   <path id="_2_12" class="fil3" d="M3637.19 1928.71l39.16 0c16.47,0 30.7,2.41 42.69,7.23 11.99,4.83 21.28,11.76 27.87,20.82 6.58,9.05 9.88,19.81 9.88,32.28 0,13.4 -3,24.87 -9,34.39 -6,9.53 -13.93,16.82 -23.81,21.88 -9.88,5.05 -20.82,7.52 -32.81,7.4 -11.99,-0.11 -23.99,-3.11 -35.98,-8.99l0 -3.53c0,0 1.94,0.35 5.82,1.06 3.88,0.7 8.88,1 14.99,0.88 6.12,-0.12 12.58,-1.18 19.4,-3.17 6.82,-2 13.23,-5.71 19.23,-11.12 6,-5.41 10.76,-13.17 14.29,-23.28 0.94,-2.59 1.59,-5.64 1.94,-9.17 0.35,-3.53 0.53,-6.82 0.53,-9.88 0,-14.35 -4.94,-25.64 -14.82,-33.87 -9.88,-8.23 -23.52,-12.34 -40.92,-12.34l-34.57 0c0,0 -0.3,-0.89 -0.89,-2.65 -0.58,-1.76 -1.23,-3.53 -1.94,-5.29 -0.7,-1.77 -1.06,-2.65 -1.06,-2.65zm4.59 0l0 211.67 -22.58 0 0 -211.67 22.58 0zm-21.87 189.09l4.58 22.58 -30.69 0 0 -3.53c0,0 0.83,0 2.47,0 1.65,0 2.47,0 2.47,0 5.65,0 10.41,-1.88 14.29,-5.64 3.88,-3.77 5.94,-8.23 6.17,-13.41l0.71 0zm0 -166.86l-0.71 0c-0.23,-5.41 -2.29,-9.88 -6.17,-13.41 -3.88,-3.53 -8.64,-5.29 -14.29,-5.29 0,0 -0.82,0 -2.47,0 -1.64,0 -2.47,0 -2.47,0l0 -3.53 30.69 0 -4.58 22.23zm20.81 166.86l0.71 0c0.23,5.18 2.29,9.64 6.17,13.41 3.88,3.76 8.64,5.64 14.29,5.64 0.23,0 1.12,0 2.65,0 1.52,0 2.29,0 2.29,0l0 3.53 -30.69 0 4.58 -22.58z"/>
   <path id="_3_13" class="fil3" d="M3994.92 1928.71c23.28,0 43.39,4.24 60.33,12.7 16.93,8.47 29.98,20.64 39.16,36.51 9.17,15.88 13.75,34.75 13.75,56.63 0,21.87 -4.58,40.68 -13.75,56.44 -9.18,15.76 -22.23,27.93 -39.16,36.51 -16.94,8.59 -37.05,12.88 -60.33,12.88l-75.14 0 -0.71 -10.58c16.47,0 30.28,0 41.46,0 11.17,0 19.69,0 25.57,0 5.88,0 8.82,0 8.82,0 27.28,0 48.74,-8.53 64.38,-25.58 15.64,-17.05 23.46,-40.28 23.46,-69.67 0,-29.4 -7.82,-52.63 -23.46,-69.68 -15.64,-17.05 -37.1,-25.57 -64.38,-25.57 0,0 -3.06,0 -9.17,0 -6.12,0 -15.05,0 -26.81,0 -11.76,0 -26.23,0 -43.39,0l0 -10.59 79.37 0zm-70.2 0l0 211.67 -22.93 0 0 -211.67 22.93 0zm-22.23 188.74l0 22.93 -25.4 0 0 -3.53c0,0 0.77,0 2.3,0 1.52,0 2.29,0 2.29,0 5.64,0 10.35,-1.94 14.11,-5.82 3.76,-3.88 5.76,-8.41 6,-13.58l0.7 0zm0 -165.81l-0.7 0c-0.24,-5.64 -2.3,-10.29 -6.18,-13.93 -3.88,-3.65 -8.64,-5.47 -14.28,-5.47 0,0 -0.71,0 -2.12,0 -1.41,0 -2.12,0 -2.12,0l0 -3.53 25.4 0 0 22.93z"/>
   <path id="_4_14" class="fil3" d="M4187.89 1928.71l0 211.67 -22.58 0 0 -211.67 22.58 0zm94.9 200.73l-0.71 10.94 -94.89 0 0 -10.94 95.6 0zm-16.58 -100.19l0 10.59 -79.02 0 0 -10.59 79.02 0zm16.23 -100.54l0 10.94 -95.25 0 0 -10.94 95.25 0zm20.1 161.22l-19.4 50.45 -53.62 0 11.99 -10.94c11.76,0 21.23,-1.7 28.4,-5.11 7.18,-3.41 13,-8.12 17.46,-14.11 4.47,-6 8.35,-12.76 11.65,-20.29l3.52 0zm-36.33 -50.8l0 20.11 -3.88 0 0 -4.59c0,-3.99 -1.18,-7.46 -3.53,-10.4 -2.35,-2.94 -6,-4.41 -10.94,-4.41l0 -0.71 18.35 0zm0 -29.28l0 20.11 -18.35 0 0 -0.71c4.94,0 8.59,-1.47 10.94,-4.41 2.35,-2.94 3.53,-6.4 3.53,-10.4l0 -4.59 3.88 0zm16.23 -71.26l0 24.34 -3.88 0 0 -5.29c0,-4.94 -1.59,-9.17 -4.77,-12.7 -3.17,-3.53 -7.46,-5.29 -12.87,-5.29l0 -1.06 21.52 0zm0 -15.52l0 9.17 -40.22 -3.53c7.29,0 15.05,-0.64 23.28,-1.94 8.23,-1.29 13.88,-2.53 16.94,-3.7zm-116.42 194.73l4.58 22.58 -30.69 0 0 -3.53c0,0 0.83,0 2.47,0 1.65,0 2.47,0 2.47,0 5.88,0 10.7,-1.88 14.47,-5.64 3.76,-3.77 5.76,-8.23 5.99,-13.41l0.71 0zm0 -166.86l-0.71 0c-0.23,-5.41 -2.23,-9.88 -5.99,-13.41 -3.77,-3.53 -8.59,-5.29 -14.47,-5.29 0,0 -0.82,0 -2.47,0 -1.64,0 -2.47,0 -2.47,0l0 -3.53 30.69 0 -4.58 22.23z"/>
   <path id="_5_15" class="fil3" d="M4428.49 2145.32l-97.02 -214.49 27.87 0 75.15 183.09 -6 31.4zm0 0l-2.47 -24.34 80.79 -191.21 22.22 0 -83.61 179.21c0,0 -0.64,1.41 -1.94,4.24 -1.29,2.82 -2.82,6.29 -4.58,10.4 -1.77,4.12 -3.36,8.18 -4.77,12.17 -1.41,4 -2.23,7.18 -2.47,9.53l-3.17 0zm68.09 -190.86c2.58,-7.05 2.23,-12.52 -1.06,-16.4 -3.3,-3.88 -7.06,-5.82 -11.29,-5.82l-2.47 0 0 -3.53 67.03 0 0 3.53c0,0 -0.47,0 -1.41,0 -0.94,0 -1.42,0 -1.42,0 -4.93,0 -9.99,1.7 -15.16,5.12 -5.18,3.41 -9.65,9.11 -13.41,17.1l-20.81 0zm-127.71 0l-26.81 0c-3.53,-7.99 -7.88,-13.69 -13.05,-17.1 -5.18,-3.42 -10.12,-5.12 -14.82,-5.12 0,0 -0.47,0 -1.41,0 -0.94,0 -1.41,0 -1.41,0l0 -3.53 72.32 0 0 3.53 -2.83 0c-3.99,0 -7.58,1.94 -10.76,5.82 -3.17,3.88 -3.58,9.35 -1.23,16.4z"/>
   <path id="_6_16" class="fil3" d="M4614.4 1928.71l0 211.67 -22.58 0 0 -211.67 22.58 0zm94.9 200.73l-0.71 10.94 -94.89 0 0 -10.94 95.6 0zm-16.58 -100.19l0 10.59 -79.02 0 0 -10.59 79.02 0zm16.23 -100.54l0 10.94 -95.25 0 0 -10.94 95.25 0zm20.1 161.22l-19.4 50.45 -53.62 0 11.99 -10.94c11.76,0 21.23,-1.7 28.4,-5.11 7.18,-3.41 13,-8.12 17.46,-14.11 4.47,-6 8.35,-12.76 11.65,-20.29l3.52 0zm-36.33 -50.8l0 20.11 -3.88 0 0 -4.59c0,-3.99 -1.18,-7.46 -3.53,-10.4 -2.35,-2.94 -6,-4.41 -10.94,-4.41l0 -0.71 18.35 0zm0 -29.28l0 20.11 -18.35 0 0 -0.71c4.94,0 8.59,-1.47 10.94,-4.41 2.35,-2.94 3.53,-6.4 3.53,-10.4l0 -4.59 3.88 0zm16.23 -71.26l0 24.34 -3.88 0 0 -5.29c0,-4.94 -1.59,-9.17 -4.77,-12.7 -3.17,-3.53 -7.46,-5.29 -12.87,-5.29l0 -1.06 21.52 0zm0 -15.52l0 9.17 -40.22 -3.53c7.29,0 15.05,-0.64 23.28,-1.94 8.23,-1.29 13.88,-2.53 16.94,-3.7zm-116.42 194.73l4.58 22.58 -30.69 0 0 -3.53c0,0 0.83,0 2.47,0 1.65,0 2.47,0 2.47,0 5.88,0 10.7,-1.88 14.47,-5.64 3.76,-3.77 5.76,-8.23 5.99,-13.41l0.71 0zm0 -166.86l-0.71 0c-0.23,-5.41 -2.23,-9.88 -5.99,-13.41 -3.77,-3.53 -8.59,-5.29 -14.47,-5.29 0,0 -0.82,0 -2.47,0 -1.64,0 -2.47,0 -2.47,0l0 -3.53 30.69 0 -4.58 22.23z"/>
   <path id="_7_17" class="fil3" d="M4803.49 1928.71l0 211.67 -22.58 0 0 -211.67 22.58 0zm94.9 200.73l-0.71 10.94 -94.89 0 0 -10.94 95.6 0zm19.75 -39.51l-19.4 50.45 -53.62 0 11.99 -10.94c11.76,0 21.23,-1.7 28.4,-5.11 7.18,-3.41 13,-8.12 17.46,-14.11 4.47,-6 8.35,-12.76 11.65,-20.29l3.52 0zm-136.52 27.87l4.58 22.58 -30.69 0 0 -3.53c0,0 0.83,0 2.47,0 1.65,0 2.47,0 2.47,0 5.88,0 10.7,-1.88 14.47,-5.64 3.76,-3.77 5.76,-8.23 5.99,-13.41l0.71 0zm20.81 -166.51l0 -22.58 26.11 0 0 3.53c0,0 -0.71,0 -2.12,0 -1.41,0 -2.11,0 -2.11,0 -5.65,0 -10.53,1.82 -14.65,5.47 -4.11,3.64 -6.17,8.17 -6.17,13.58l-1.06 0zm-20.81 0l-0.71 0c-0.23,-5.41 -2.35,-9.94 -6.35,-13.58 -4,-3.65 -8.93,-5.47 -14.81,-5.47 0,0 -0.71,0 -2.12,0 -1.41,0 -2.12,0 -2.12,0l0 -3.53 26.11 0 0 22.58z"/>
   <path id="_8_18" class="fil3" d="M5059.97 1923.77c16.46,0 31.92,2.65 46.39,7.94 14.46,5.29 27.16,12.88 38.1,22.75 10.93,9.88 19.46,21.58 25.57,35.11 6.12,13.52 9.18,28.51 9.18,44.98 0,16.46 -3.06,31.45 -9.18,44.98 -6.11,13.52 -14.64,25.22 -25.57,35.1 -10.94,9.87 -23.64,17.46 -38.1,22.75 -14.47,5.29 -29.93,7.94 -46.39,7.94 -16.47,0 -31.87,-2.65 -46.22,-7.94 -14.34,-5.29 -26.99,-12.88 -37.92,-22.75 -10.94,-9.88 -19.46,-21.58 -25.58,-35.1 -6.11,-13.53 -9.17,-28.52 -9.17,-44.98 0,-16.47 3.06,-31.46 9.17,-44.98 6.12,-13.53 14.64,-25.23 25.58,-35.11 10.93,-9.87 23.58,-17.46 37.92,-22.75 14.35,-5.29 29.75,-7.94 46.22,-7.94zm0 210.97c17.4,0 33.16,-4.24 47.27,-12.7 14.11,-8.47 25.28,-20.23 33.51,-35.28 8.23,-15.05 12.35,-32.46 12.35,-52.21 0,-19.99 -4.12,-37.46 -12.35,-52.39 -8.23,-14.94 -19.4,-26.64 -33.51,-35.1 -14.11,-8.47 -29.87,-12.7 -47.27,-12.7 -17.17,0 -32.81,4.23 -46.92,12.7 -14.12,8.46 -25.29,20.16 -33.52,35.1 -8.23,14.93 -12.35,32.4 -12.35,52.39 0,19.75 4.12,37.16 12.35,52.21 8.23,15.05 19.4,26.81 33.52,35.28 14.11,8.46 29.75,12.7 46.92,12.7z"/>
   <path id="_9_19" class="fil3" d="M5253.99 1928.71l39.16 0c16.47,0 30.7,2.41 42.69,7.23 11.99,4.83 21.28,11.76 27.87,20.82 6.58,9.05 9.88,19.81 9.88,32.28 0,13.4 -3,24.87 -9,34.39 -6,9.53 -13.93,16.82 -23.81,21.88 -9.88,5.05 -20.82,7.52 -32.81,7.4 -11.99,-0.11 -23.99,-3.11 -35.98,-8.99l0 -3.53c0,0 1.94,0.35 5.82,1.06 3.88,0.7 8.88,1 14.99,0.88 6.12,-0.12 12.58,-1.18 19.4,-3.17 6.82,-2 13.23,-5.71 19.23,-11.12 6,-5.41 10.76,-13.17 14.29,-23.28 0.94,-2.59 1.59,-5.64 1.94,-9.17 0.35,-3.53 0.53,-6.82 0.53,-9.88 0,-14.35 -4.94,-25.64 -14.82,-33.87 -9.88,-8.23 -23.52,-12.34 -40.92,-12.34l-34.57 0c0,0 -0.3,-0.89 -0.89,-2.65 -0.58,-1.76 -1.23,-3.53 -1.94,-5.29 -0.7,-1.77 -1.06,-2.65 -1.06,-2.65zm4.59 0l0 211.67 -22.58 0 0 -211.67 22.58 0zm-21.87 189.09l4.58 22.58 -30.69 0 0 -3.53c0,0 0.83,0 2.47,0 1.65,0 2.47,0 2.47,0 5.65,0 10.41,-1.88 14.29,-5.64 3.88,-3.77 5.94,-8.23 6.17,-13.41l0.71 0zm0 -166.86l-0.71 0c-0.23,-5.41 -2.29,-9.88 -6.17,-13.41 -3.88,-3.53 -8.64,-5.29 -14.29,-5.29 0,0 -0.82,0 -2.47,0 -1.64,0 -2.47,0 -2.47,0l0 -3.53 30.69 0 -4.58 22.23zm20.81 166.86l0.71 0c0.23,5.18 2.29,9.64 6.17,13.41 3.88,3.76 8.64,5.64 14.29,5.64 0.23,0 1.12,0 2.65,0 1.52,0 2.29,0 2.29,0l0 3.53 -30.69 0 4.58 -22.58z"/>
   <path id="_10_20" class="fil3" d="M5453.67 1928.71l0 211.67 -22.58 0 0 -211.67 22.58 0zm94.9 200.73l-0.71 10.94 -94.89 0 0 -10.94 95.6 0zm-16.58 -100.19l0 10.59 -79.02 0 0 -10.59 79.02 0zm16.23 -100.54l0 10.94 -95.25 0 0 -10.94 95.25 0zm20.1 161.22l-19.4 50.45 -53.62 0 11.99 -10.94c11.76,0 21.23,-1.7 28.4,-5.11 7.18,-3.41 13,-8.12 17.46,-14.11 4.47,-6 8.35,-12.76 11.65,-20.29l3.52 0zm-36.33 -50.8l0 20.11 -3.88 0 0 -4.59c0,-3.99 -1.18,-7.46 -3.53,-10.4 -2.35,-2.94 -6,-4.41 -10.94,-4.41l0 -0.71 18.35 0zm0 -29.28l0 20.11 -18.35 0 0 -0.71c4.94,0 8.59,-1.47 10.94,-4.41 2.35,-2.94 3.53,-6.4 3.53,-10.4l0 -4.59 3.88 0zm16.23 -71.26l0 24.34 -3.88 0 0 -5.29c0,-4.94 -1.59,-9.17 -4.77,-12.7 -3.17,-3.53 -7.46,-5.29 -12.87,-5.29l0 -1.06 21.52 0zm0 -15.52l0 9.17 -40.22 -3.53c7.29,0 15.05,-0.64 23.28,-1.94 8.23,-1.29 13.88,-2.53 16.94,-3.7zm-116.42 194.73l4.58 22.58 -30.69 0 0 -3.53c0,0 0.83,0 2.47,0 1.65,0 2.47,0 2.47,0 5.88,0 10.7,-1.88 14.47,-5.64 3.76,-3.77 5.76,-8.23 5.99,-13.41l0.71 0zm0 -166.86l-0.71 0c-0.23,-5.41 -2.23,-9.88 -5.99,-13.41 -3.77,-3.53 -8.59,-5.29 -14.47,-5.29 0,0 -0.82,0 -2.47,0 -1.64,0 -2.47,0 -2.47,0l0 -3.53 30.69 0 -4.58 22.23z"/>
   <path id="_11_21" class="fil3" d="M5637.82 1928.71l45.51 0c11.05,0 20.99,1.3 29.81,3.88 8.82,2.59 16.35,6.35 22.58,11.29 6.23,4.94 10.99,10.94 14.29,17.99 3.29,7.06 4.94,15.06 4.94,23.99 0,9.88 -2.36,19.05 -7.06,27.52 -4.7,8.47 -11.23,15.4 -19.58,20.81 -8.35,5.41 -17.82,8.71 -28.4,9.88 4,1.65 8.64,5.29 13.94,10.94 5.29,5.64 9.82,11.17 13.58,16.58 0,0 1.53,2.06 4.58,6.17 3.06,4.12 7,9.17 11.82,15.17 4.82,6 9.59,11.7 14.29,17.11 4.94,5.41 9.47,10.11 13.58,14.11 4.12,4 8.59,7.12 13.41,9.35 4.82,2.24 10.4,3.35 16.75,3.35l0 3.53 -10.93 0c-12.94,0 -23.58,-1.65 -31.93,-4.94 -8.35,-3.29 -15.11,-7.35 -20.28,-12.17 -5.18,-4.82 -9.65,-9.47 -13.41,-13.93 -0.94,-1.18 -3.11,-4.18 -6.52,-9 -3.42,-4.82 -7.12,-10.05 -11.12,-15.7 -4,-5.64 -7.64,-10.76 -10.93,-15.35 -3.3,-4.58 -5.3,-7.34 -6,-8.29 -4.7,-6.11 -10.11,-11.58 -16.23,-16.4 -6.11,-4.82 -12.58,-7.23 -19.4,-7.23l0 -3.53c0,0 1.88,0.06 5.64,0.18 3.77,0.11 8.59,0.06 14.47,-0.18 6.58,-0.23 13.17,-0.76 19.75,-1.59 6.59,-0.82 12.76,-3.35 18.52,-7.58 5.77,-4.24 10.29,-11.29 13.59,-21.17 0.94,-2.59 1.64,-5.64 2.11,-9.17 0.47,-3.53 0.59,-7.17 0.35,-10.94 -0.23,-6.58 -1.47,-12.46 -3.7,-17.64 -2.23,-5.17 -5.41,-9.64 -9.52,-13.4 -4.12,-3.76 -9,-6.7 -14.64,-8.82 -5.65,-2.12 -12,-3.29 -19.05,-3.53 -11.06,-0.47 -20.7,-0.59 -28.93,-0.35 -8.23,0.23 -12.35,0.23 -12.35,0 0,-0.24 -0.29,-1.24 -0.88,-3 -0.59,-1.76 -1.18,-3.53 -1.77,-5.29 -0.58,-1.77 -0.88,-2.65 -0.88,-2.65zm4.24 0l0 211.67 -22.58 0 0 -211.67 22.58 0zm-21.52 189.09l4.23 22.58 -29.99 0 0 -3.53c0,0 0.83,0 2.47,0 1.65,0 2.47,0 2.47,0 5.65,0 10.35,-1.88 14.11,-5.64 3.77,-3.77 5.77,-8.23 6,-13.41l0.71 0zm0 -166.86l-0.71 0c-0.23,-5.41 -2.23,-9.88 -6,-13.41 -3.76,-3.53 -8.46,-5.29 -14.11,-5.29 0,0 -0.82,0 -2.47,0 -1.64,0 -2.47,0 -2.47,0l0 -3.53 29.99 0 -4.23 22.23zm20.46 166.86l1.06 0c0.23,5.18 2.23,9.64 5.99,13.41 3.77,3.76 8.47,5.64 14.11,5.64 0,0 0.77,0 2.3,0 1.53,0 2.29,0 2.29,0l0.35 3.53 -30.34 0 4.24 -22.58z"/>
   <path class="fil4" d="M3205.96 1928.71l39.16 0c16.47,0 30.7,2.41 42.69,7.23 11.99,4.83 21.28,11.76 27.87,20.82 6.58,9.05 9.88,19.81 9.88,32.28 0,13.4 -3,24.87 -9,34.39 -6,9.53 -13.93,16.82 -23.81,21.88 -9.88,5.05 -20.82,7.52 -32.81,7.4 -11.99,-0.11 -23.99,-3.11 -35.98,-8.99l0 -3.53c0,0 1.94,0.35 5.82,1.06 3.88,0.7 8.88,1 14.99,0.88 6.12,-0.12 12.58,-1.18 19.4,-3.17 6.82,-2 13.23,-5.71 19.23,-11.12 6,-5.41 10.76,-13.17 14.29,-23.28 0.94,-2.59 1.59,-5.64 1.94,-9.17 0.35,-3.53 0.53,-6.82 0.53,-9.88 0,-14.35 -4.94,-25.64 -14.82,-33.87 -9.88,-8.23 -23.52,-12.34 -40.92,-12.34l-34.57 0c0,0 -0.3,-0.89 -0.89,-2.65 -0.58,-1.76 -1.23,-3.53 -1.94,-5.29 -0.7,-1.77 -1.06,-2.65 -1.06,-2.65zm4.59 0l0 211.67 -22.58 0 0 -211.67 22.58 0zm-21.87 189.09l4.58 22.58 -30.69 0 0 -3.53c0,0 0.83,0 2.47,0 1.65,0 2.47,0 2.47,0 5.65,0 10.41,-1.88 14.29,-5.64 3.88,-3.77 5.94,-8.23 6.17,-13.41l0.71 0zm0 -166.86l-0.71 0c-0.23,-5.41 -2.29,-9.88 -6.17,-13.41 -3.88,-3.53 -8.64,-5.29 -14.29,-5.29 0,0 -0.82,0 -2.47,0 -1.64,0 -2.47,0 -2.47,0l0 -3.53 30.69 0 -4.58 22.23zm20.81 166.86l0.71 0c0.23,5.18 2.29,9.64 6.17,13.41 3.88,3.76 8.64,5.64 14.29,5.64 0.23,0 1.12,0 2.65,0 1.52,0 2.29,0 2.29,0l0 3.53 -30.69 0 4.58 -22.58z"/>
   <path id="_1_22" class="fil4" d="M3557.69 1928.71l0 211.67 -22.58 0 0 -211.67 22.58 0zm-152.75 0l0 211.67 -22.58 0 0 -211.67 22.58 0zm133.7 101.96l0 10.58 -137.59 0 0 -10.58 137.59 0zm-155.22 87.13l0 22.58 -25.76 0 0 -3.53c0,0 0.71,0 2.12,0 1.41,0 2.12,0 2.12,0 5.64,0 10.4,-1.88 14.28,-5.64 3.88,-3.77 5.94,-8.23 6.18,-13.41l1.06 0zm20.46 0l1.06 0c0,5.18 1.99,9.64 5.99,13.41 4,3.76 8.82,5.64 14.47,5.64 0,0 0.7,0 2.11,0 1.41,0 2.12,0 2.12,0l0 3.53 -25.75 0 0 -22.58zm0 -166.51l0 -22.58 25.75 0 0 3.53c0,0 -0.71,0 -2.12,0 -1.41,0 -2.11,0 -2.11,0 -5.65,0 -10.47,1.82 -14.47,5.47 -4,3.64 -5.99,8.17 -5.99,13.58l-1.06 0zm-20.46 0l-1.06 0c-0.24,-5.41 -2.3,-9.94 -6.18,-13.58 -3.88,-3.65 -8.64,-5.47 -14.28,-5.47 0,0 -0.71,0 -2.12,0 -1.41,0 -2.12,0 -2.12,0l0 -3.53 25.76 0 0 22.58zm152.75 166.51l0 22.58 -25.75 0 0 -3.53c0,0 0.7,0 2.11,0 1.41,0 2.12,0 2.12,0 5.64,0 10.41,-1.88 14.29,-5.64 3.88,-3.77 5.94,-8.23 6.17,-13.41l1.06 0zm20.46 0l1.06 0c0.23,5.18 2.29,9.64 6.17,13.41 3.88,3.76 8.65,5.64 14.29,5.64 0,0 0.71,0 2.12,0 1.41,0 2.11,0 2.11,0l0 3.53 -25.75 0 0 -22.58zm0 -166.51l0 -22.58 25.75 0 0 3.53c0,0 -0.7,0 -2.11,0 -1.41,0 -2.12,0 -2.12,0 -5.64,0 -10.41,1.82 -14.29,5.47 -3.88,3.64 -5.94,8.17 -6.17,13.58l-1.06 0zm-20.46 0l-1.06 0c-0.23,-5.41 -2.29,-9.94 -6.17,-13.58 -3.88,-3.65 -8.65,-5.47 -14.29,-5.47 0,0 -0.71,0 -2.12,0 -1.41,0 -2.11,0 -2.11,0l0 -3.53 25.75 0 0 22.58z"/>
   <path id="_2_23" class="fil4" d="M3664.22 1928.71l39.16 0c16.47,0 30.7,2.41 42.69,7.23 11.99,4.83 21.28,11.76 27.87,20.82 6.58,9.05 9.88,19.81 9.88,32.28 0,13.4 -3,24.87 -9,34.39 -6,9.53 -13.93,16.82 -23.81,21.88 -9.88,5.05 -20.82,7.52 -32.81,7.4 -11.99,-0.11 -23.99,-3.11 -35.98,-8.99l0 -3.53c0,0 1.94,0.35 5.82,1.06 3.88,0.7 8.88,1 14.99,0.88 6.12,-0.12 12.58,-1.18 19.4,-3.17 6.82,-2 13.23,-5.71 19.23,-11.12 6,-5.41 10.76,-13.17 14.29,-23.28 0.94,-2.59 1.59,-5.64 1.94,-9.17 0.35,-3.53 0.53,-6.82 0.53,-9.88 0,-14.35 -4.94,-25.64 -14.82,-33.87 -9.88,-8.23 -23.52,-12.34 -40.92,-12.34l-34.57 0c0,0 -0.3,-0.89 -0.89,-2.65 -0.58,-1.76 -1.23,-3.53 -1.94,-5.29 -0.7,-1.77 -1.06,-2.65 -1.06,-2.65zm4.59 0l0 211.67 -22.58 0 0 -211.67 22.58 0zm-21.87 189.09l4.58 22.58 -30.69 0 0 -3.53c0,0 0.83,0 2.47,0 1.65,0 2.47,0 2.47,0 5.65,0 10.41,-1.88 14.29,-5.64 3.88,-3.77 5.94,-8.23 6.17,-13.41l0.71 0zm0 -166.86l-0.71 0c-0.23,-5.41 -2.29,-9.88 -6.17,-13.41 -3.88,-3.53 -8.64,-5.29 -14.29,-5.29 0,0 -0.82,0 -2.47,0 -1.64,0 -2.47,0 -2.47,0l0 -3.53 30.69 0 -4.58 22.23zm20.81 166.86l0.71 0c0.23,5.18 2.29,9.64 6.17,13.41 3.88,3.76 8.64,5.64 14.29,5.64 0.23,0 1.12,0 2.65,0 1.52,0 2.29,0 2.29,0l0 3.53 -30.69 0 4.58 -22.58z"/>
   <path id="_3_24" class="fil4" d="M4021.95 1928.71c23.28,0 43.39,4.24 60.33,12.7 16.93,8.47 29.98,20.64 39.16,36.51 9.17,15.88 13.75,34.75 13.75,56.63 0,21.87 -4.58,40.68 -13.75,56.44 -9.18,15.76 -22.23,27.93 -39.16,36.51 -16.94,8.59 -37.05,12.88 -60.33,12.88l-75.14 0 -0.71 -10.58c16.47,0 30.28,0 41.46,0 11.17,0 19.69,0 25.57,0 5.88,0 8.82,0 8.82,0 27.28,0 48.74,-8.53 64.38,-25.58 15.64,-17.05 23.46,-40.28 23.46,-69.67 0,-29.4 -7.82,-52.63 -23.46,-69.68 -15.64,-17.05 -37.1,-25.57 -64.38,-25.57 0,0 -3.06,0 -9.17,0 -6.12,0 -15.05,0 -26.81,0 -11.76,0 -26.23,0 -43.39,0l0 -10.59 79.37 0zm-70.2 0l0 211.67 -22.93 0 0 -211.67 22.93 0zm-22.23 188.74l0 22.93 -25.4 0 0 -3.53c0,0 0.77,0 2.3,0 1.52,0 2.29,0 2.29,0 5.64,0 10.35,-1.94 14.11,-5.82 3.76,-3.88 5.76,-8.41 6,-13.58l0.7 0zm0 -165.81l-0.7 0c-0.24,-5.64 -2.3,-10.29 -6.18,-13.93 -3.88,-3.65 -8.64,-5.47 -14.28,-5.47 0,0 -0.71,0 -2.12,0 -1.41,0 -2.12,0 -2.12,0l0 -3.53 25.4 0 0 22.93z"/>
   <path id="_4_25" class="fil4" d="M4214.92 1928.71l0 211.67 -22.58 0 0 -211.67 22.58 0zm94.9 200.73l-0.71 10.94 -94.89 0 0 -10.94 95.6 0zm-16.58 -100.19l0 10.59 -79.02 0 0 -10.59 79.02 0zm16.23 -100.54l0 10.94 -95.25 0 0 -10.94 95.25 0zm20.1 161.22l-19.4 50.45 -53.62 0 11.99 -10.94c11.76,0 21.23,-1.7 28.4,-5.11 7.18,-3.41 13,-8.12 17.46,-14.11 4.47,-6 8.35,-12.76 11.65,-20.29l3.52 0zm-36.33 -50.8l0 20.11 -3.88 0 0 -4.59c0,-3.99 -1.18,-7.46 -3.53,-10.4 -2.35,-2.94 -6,-4.41 -10.94,-4.41l0 -0.71 18.35 0zm0 -29.28l0 20.11 -18.35 0 0 -0.71c4.94,0 8.59,-1.47 10.94,-4.41 2.35,-2.94 3.53,-6.4 3.53,-10.4l0 -4.59 3.88 0zm16.23 -71.26l0 24.34 -3.88 0 0 -5.29c0,-4.94 -1.59,-9.17 -4.77,-12.7 -3.17,-3.53 -7.46,-5.29 -12.87,-5.29l0 -1.06 21.52 0zm0 -15.52l0 9.17 -40.22 -3.53c7.29,0 15.05,-0.64 23.28,-1.94 8.23,-1.29 13.88,-2.53 16.94,-3.7zm-116.42 194.73l4.58 22.58 -30.69 0 0 -3.53c0,0 0.83,0 2.47,0 1.65,0 2.47,0 2.47,0 5.88,0 10.7,-1.88 14.47,-5.64 3.76,-3.77 5.76,-8.23 5.99,-13.41l0.71 0zm0 -166.86l-0.71 0c-0.23,-5.41 -2.23,-9.88 -5.99,-13.41 -3.77,-3.53 -8.59,-5.29 -14.47,-5.29 0,0 -0.82,0 -2.47,0 -1.64,0 -2.47,0 -2.47,0l0 -3.53 30.69 0 -4.58 22.23z"/>
   <path id="_5_26" class="fil4" d="M4455.52 2145.32l-97.02 -214.49 27.87 0 75.15 183.09 -6 31.4zm0 0l-2.47 -24.34 80.79 -191.21 22.22 0 -83.61 179.21c0,0 -0.64,1.41 -1.94,4.24 -1.29,2.82 -2.82,6.29 -4.58,10.4 -1.77,4.12 -3.36,8.18 -4.77,12.17 -1.41,4 -2.23,7.18 -2.47,9.53l-3.17 0zm68.09 -190.86c2.58,-7.05 2.23,-12.52 -1.06,-16.4 -3.3,-3.88 -7.06,-5.82 -11.29,-5.82l-2.47 0 0 -3.53 67.03 0 0 3.53c0,0 -0.47,0 -1.41,0 -0.94,0 -1.42,0 -1.42,0 -4.93,0 -9.99,1.7 -15.16,5.12 -5.18,3.41 -9.65,9.11 -13.41,17.1l-20.81 0zm-127.71 0l-26.81 0c-3.53,-7.99 -7.88,-13.69 -13.05,-17.1 -5.18,-3.42 -10.12,-5.12 -14.82,-5.12 0,0 -0.47,0 -1.41,0 -0.94,0 -1.41,0 -1.41,0l0 -3.53 72.32 0 0 3.53 -2.83 0c-3.99,0 -7.58,1.94 -10.76,5.82 -3.17,3.88 -3.58,9.35 -1.23,16.4z"/>
   <path id="_6_27" class="fil4" d="M4641.43 1928.71l0 211.67 -22.58 0 0 -211.67 22.58 0zm94.9 200.73l-0.71 10.94 -94.89 0 0 -10.94 95.6 0zm-16.58 -100.19l0 10.59 -79.02 0 0 -10.59 79.02 0zm16.23 -100.54l0 10.94 -95.25 0 0 -10.94 95.25 0zm20.1 161.22l-19.4 50.45 -53.62 0 11.99 -10.94c11.76,0 21.23,-1.7 28.4,-5.11 7.18,-3.41 13,-8.12 17.46,-14.11 4.47,-6 8.35,-12.76 11.65,-20.29l3.52 0zm-36.33 -50.8l0 20.11 -3.88 0 0 -4.59c0,-3.99 -1.18,-7.46 -3.53,-10.4 -2.35,-2.94 -6,-4.41 -10.94,-4.41l0 -0.71 18.35 0zm0 -29.28l0 20.11 -18.35 0 0 -0.71c4.94,0 8.59,-1.47 10.94,-4.41 2.35,-2.94 3.53,-6.4 3.53,-10.4l0 -4.59 3.88 0zm16.23 -71.26l0 24.34 -3.88 0 0 -5.29c0,-4.94 -1.59,-9.17 -4.77,-12.7 -3.17,-3.53 -7.46,-5.29 -12.87,-5.29l0 -1.06 21.52 0zm0 -15.52l0 9.17 -40.22 -3.53c7.29,0 15.05,-0.64 23.28,-1.94 8.23,-1.29 13.88,-2.53 16.94,-3.7zm-116.42 194.73l4.58 22.58 -30.69 0 0 -3.53c0,0 0.83,0 2.47,0 1.65,0 2.47,0 2.47,0 5.88,0 10.7,-1.88 14.47,-5.64 3.76,-3.77 5.76,-8.23 5.99,-13.41l0.71 0zm0 -166.86l-0.71 0c-0.23,-5.41 -2.23,-9.88 -5.99,-13.41 -3.77,-3.53 -8.59,-5.29 -14.47,-5.29 0,0 -0.82,0 -2.47,0 -1.64,0 -2.47,0 -2.47,0l0 -3.53 30.69 0 -4.58 22.23z"/>
   <path id="_7_28" class="fil4" d="M4830.52 1928.71l0 211.67 -22.58 0 0 -211.67 22.58 0zm94.9 200.73l-0.71 10.94 -94.89 0 0 -10.94 95.6 0zm19.75 -39.51l-19.4 50.45 -53.62 0 11.99 -10.94c11.76,0 21.23,-1.7 28.4,-5.11 7.18,-3.41 13,-8.12 17.46,-14.11 4.47,-6 8.35,-12.76 11.65,-20.29l3.52 0zm-136.52 27.87l4.58 22.58 -30.69 0 0 -3.53c0,0 0.83,0 2.47,0 1.65,0 2.47,0 2.47,0 5.88,0 10.7,-1.88 14.47,-5.64 3.76,-3.77 5.76,-8.23 5.99,-13.41l0.71 0zm20.81 -166.51l0 -22.58 26.11 0 0 3.53c0,0 -0.71,0 -2.12,0 -1.41,0 -2.11,0 -2.11,0 -5.65,0 -10.53,1.82 -14.65,5.47 -4.11,3.64 -6.17,8.17 -6.17,13.58l-1.06 0zm-20.81 0l-0.71 0c-0.23,-5.41 -2.35,-9.94 -6.35,-13.58 -4,-3.65 -8.93,-5.47 -14.81,-5.47 0,0 -0.71,0 -2.12,0 -1.41,0 -2.12,0 -2.12,0l0 -3.53 26.11 0 0 22.58z"/>
   <path id="_8_29" class="fil4" d="M5087 1923.77c16.46,0 31.92,2.65 46.39,7.94 14.46,5.29 27.16,12.88 38.1,22.75 10.93,9.88 19.46,21.58 25.57,35.11 6.12,13.52 9.18,28.51 9.18,44.98 0,16.46 -3.06,31.45 -9.18,44.98 -6.11,13.52 -14.64,25.22 -25.57,35.1 -10.94,9.87 -23.64,17.46 -38.1,22.75 -14.47,5.29 -29.93,7.94 -46.39,7.94 -16.47,0 -31.87,-2.65 -46.22,-7.94 -14.34,-5.29 -26.99,-12.88 -37.92,-22.75 -10.94,-9.88 -19.46,-21.58 -25.58,-35.1 -6.11,-13.53 -9.17,-28.52 -9.17,-44.98 0,-16.47 3.06,-31.46 9.17,-44.98 6.12,-13.53 14.64,-25.23 25.58,-35.11 10.93,-9.87 23.58,-17.46 37.92,-22.75 14.35,-5.29 29.75,-7.94 46.22,-7.94zm0 210.97c17.4,0 33.16,-4.24 47.27,-12.7 14.11,-8.47 25.28,-20.23 33.51,-35.28 8.23,-15.05 12.35,-32.46 12.35,-52.21 0,-19.99 -4.12,-37.46 -12.35,-52.39 -8.23,-14.94 -19.4,-26.64 -33.51,-35.1 -14.11,-8.47 -29.87,-12.7 -47.27,-12.7 -17.17,0 -32.81,4.23 -46.92,12.7 -14.12,8.46 -25.29,20.16 -33.52,35.1 -8.23,14.93 -12.35,32.4 -12.35,52.39 0,19.75 4.12,37.16 12.35,52.21 8.23,15.05 19.4,26.81 33.52,35.28 14.11,8.46 29.75,12.7 46.92,12.7z"/>
   <path id="_9_30" class="fil4" d="M5281.02 1928.71l39.16 0c16.47,0 30.7,2.41 42.69,7.23 11.99,4.83 21.28,11.76 27.87,20.82 6.58,9.05 9.88,19.81 9.88,32.28 0,13.4 -3,24.87 -9,34.39 -6,9.53 -13.93,16.82 -23.81,21.88 -9.88,5.05 -20.82,7.52 -32.81,7.4 -11.99,-0.11 -23.99,-3.11 -35.98,-8.99l0 -3.53c0,0 1.94,0.35 5.82,1.06 3.88,0.7 8.88,1 14.99,0.88 6.12,-0.12 12.58,-1.18 19.4,-3.17 6.82,-2 13.23,-5.71 19.23,-11.12 6,-5.41 10.76,-13.17 14.29,-23.28 0.94,-2.59 1.59,-5.64 1.94,-9.17 0.35,-3.53 0.53,-6.82 0.53,-9.88 0,-14.35 -4.94,-25.64 -14.82,-33.87 -9.88,-8.23 -23.52,-12.34 -40.92,-12.34l-34.57 0c0,0 -0.3,-0.89 -0.89,-2.65 -0.58,-1.76 -1.23,-3.53 -1.94,-5.29 -0.7,-1.77 -1.06,-2.65 -1.06,-2.65zm4.59 0l0 211.67 -22.58 0 0 -211.67 22.58 0zm-21.87 189.09l4.58 22.58 -30.69 0 0 -3.53c0,0 0.83,0 2.47,0 1.65,0 2.47,0 2.47,0 5.65,0 10.41,-1.88 14.29,-5.64 3.88,-3.77 5.94,-8.23 6.17,-13.41l0.71 0zm0 -166.86l-0.71 0c-0.23,-5.41 -2.29,-9.88 -6.17,-13.41 -3.88,-3.53 -8.64,-5.29 -14.29,-5.29 0,0 -0.82,0 -2.47,0 -1.64,0 -2.47,0 -2.47,0l0 -3.53 30.69 0 -4.58 22.23zm20.81 166.86l0.71 0c0.23,5.18 2.29,9.64 6.17,13.41 3.88,3.76 8.64,5.64 14.29,5.64 0.23,0 1.12,0 2.65,0 1.52,0 2.29,0 2.29,0l0 3.53 -30.69 0 4.58 -22.58z"/>
   <path id="_10_31" class="fil4" d="M5480.7 1928.71l0 211.67 -22.58 0 0 -211.67 22.58 0zm94.9 200.73l-0.71 10.94 -94.89 0 0 -10.94 95.6 0zm-16.58 -100.19l0 10.59 -79.02 0 0 -10.59 79.02 0zm16.23 -100.54l0 10.94 -95.25 0 0 -10.94 95.25 0zm20.1 161.22l-19.4 50.45 -53.62 0 11.99 -10.94c11.76,0 21.23,-1.7 28.4,-5.11 7.18,-3.41 13,-8.12 17.46,-14.11 4.47,-6 8.35,-12.76 11.65,-20.29l3.52 0zm-36.33 -50.8l0 20.11 -3.88 0 0 -4.59c0,-3.99 -1.18,-7.46 -3.53,-10.4 -2.35,-2.94 -6,-4.41 -10.94,-4.41l0 -0.71 18.35 0zm0 -29.28l0 20.11 -18.35 0 0 -0.71c4.94,0 8.59,-1.47 10.94,-4.41 2.35,-2.94 3.53,-6.4 3.53,-10.4l0 -4.59 3.88 0zm16.23 -71.26l0 24.34 -3.88 0 0 -5.29c0,-4.94 -1.59,-9.17 -4.77,-12.7 -3.17,-3.53 -7.46,-5.29 -12.87,-5.29l0 -1.06 21.52 0zm0 -15.52l0 9.17 -40.22 -3.53c7.29,0 15.05,-0.64 23.28,-1.94 8.23,-1.29 13.88,-2.53 16.94,-3.7zm-116.42 194.73l4.58 22.58 -30.69 0 0 -3.53c0,0 0.83,0 2.47,0 1.65,0 2.47,0 2.47,0 5.88,0 10.7,-1.88 14.47,-5.64 3.76,-3.77 5.76,-8.23 5.99,-13.41l0.71 0zm0 -166.86l-0.71 0c-0.23,-5.41 -2.23,-9.88 -5.99,-13.41 -3.77,-3.53 -8.59,-5.29 -14.47,-5.29 0,0 -0.82,0 -2.47,0 -1.64,0 -2.47,0 -2.47,0l0 -3.53 30.69 0 -4.58 22.23z"/>
   <path id="_11_32" class="fil4" d="M5664.85 1928.71l45.51 0c11.05,0 20.99,1.3 29.81,3.88 8.82,2.59 16.35,6.35 22.58,11.29 6.23,4.94 10.99,10.94 14.29,17.99 3.29,7.06 4.94,15.06 4.94,23.99 0,9.88 -2.36,19.05 -7.06,27.52 -4.7,8.47 -11.23,15.4 -19.58,20.81 -8.35,5.41 -17.82,8.71 -28.4,9.88 4,1.65 8.64,5.29 13.94,10.94 5.29,5.64 9.82,11.17 13.58,16.58 0,0 1.53,2.06 4.58,6.17 3.06,4.12 7,9.17 11.82,15.17 4.82,6 9.59,11.7 14.29,17.11 4.94,5.41 9.47,10.11 13.58,14.11 4.12,4 8.59,7.12 13.41,9.35 4.82,2.24 10.4,3.35 16.75,3.35l0 3.53 -10.93 0c-12.94,0 -23.58,-1.65 -31.93,-4.94 -8.35,-3.29 -15.11,-7.35 -20.28,-12.17 -5.18,-4.82 -9.65,-9.47 -13.41,-13.93 -0.94,-1.18 -3.11,-4.18 -6.52,-9 -3.42,-4.82 -7.12,-10.05 -11.12,-15.7 -4,-5.64 -7.64,-10.76 -10.93,-15.35 -3.3,-4.58 -5.3,-7.34 -6,-8.29 -4.7,-6.11 -10.11,-11.58 -16.23,-16.4 -6.11,-4.82 -12.58,-7.23 -19.4,-7.23l0 -3.53c0,0 1.88,0.06 5.64,0.18 3.77,0.11 8.59,0.06 14.47,-0.18 6.58,-0.23 13.17,-0.76 19.75,-1.59 6.59,-0.82 12.76,-3.35 18.52,-7.58 5.77,-4.24 10.29,-11.29 13.59,-21.17 0.94,-2.59 1.64,-5.64 2.11,-9.17 0.47,-3.53 0.59,-7.17 0.35,-10.94 -0.23,-6.58 -1.47,-12.46 -3.7,-17.64 -2.23,-5.17 -5.41,-9.64 -9.52,-13.4 -4.12,-3.76 -9,-6.7 -14.64,-8.82 -5.65,-2.12 -12,-3.29 -19.05,-3.53 -11.06,-0.47 -20.7,-0.59 -28.93,-0.35 -8.23,0.23 -12.35,0.23 -12.35,0 0,-0.24 -0.29,-1.24 -0.88,-3 -0.59,-1.76 -1.18,-3.53 -1.77,-5.29 -0.58,-1.77 -0.88,-2.65 -0.88,-2.65zm4.24 0l0 211.67 -22.58 0 0 -211.67 22.58 0zm-21.52 189.09l4.23 22.58 -29.99 0 0 -3.53c0,0 0.83,0 2.47,0 1.65,0 2.47,0 2.47,0 5.65,0 10.35,-1.88 14.11,-5.64 3.77,-3.77 5.77,-8.23 6,-13.41l0.71 0zm0 -166.86l-0.71 0c-0.23,-5.41 -2.23,-9.88 -6,-13.41 -3.76,-3.53 -8.46,-5.29 -14.11,-5.29 0,0 -0.82,0 -2.47,0 -1.64,0 -2.47,0 -2.47,0l0 -3.53 29.99 0 -4.23 22.23zm20.46 166.86l1.06 0c0.23,5.18 2.23,9.64 5.99,13.41 3.77,3.76 8.47,5.64 14.11,5.64 0,0 0.77,0 2.3,0 1.53,0 2.29,0 2.29,0l0.35 3.53 -30.34 0 4.24 -22.58z"/>
  </g>
  <g id="PHP">
   <path id="path3462" class="fil5" d="M695.73 4006.14c0,138.07 212.78,250 475.25,250l0 0c262.47,0 475.25,-111.93 475.25,-250l0 0c0,-138.07 -212.78,-250 -475.25,-250l0 0c-262.47,0 -475.25,111.93 -475.25,250z"/>
   <path id="path3474" class="fil6" d="M1170.98 4237.58c252.22,0 456.69,-103.62 456.69,-231.44 0,-127.82 -204.47,-231.44 -456.69,-231.44 -252.22,0 -456.69,103.62 -456.69,231.44 0,127.82 204.47,231.44 456.69,231.44z"/>
   <g>
    <path id="path3486" class="fil7" d="M953.94 4034.83c20.74,0 36.22,-3.82 46.02,-11.36 9.69,-7.46 16.38,-20.39 19.89,-38.42 3.27,-16.86 2.02,-28.63 -3.7,-34.98 -5.86,-6.49 -18.52,-9.78 -37.64,-9.78l-33.14 0 -18.37 94.54 26.94 0zm-108.4 116.46c-1.54,0 -3,-0.69 -3.98,-1.88 -0.98,-1.18 -1.38,-2.75 -1.08,-4.26l48.69 -250.54c0.47,-2.42 2.59,-4.17 5.06,-4.17l104.95 0c32.98,0 57.53,8.96 72.96,26.62 15.52,17.76 20.31,42.59 14.24,73.78 -2.47,12.71 -6.71,24.52 -12.62,35.08 -5.91,10.58 -13.72,20.37 -23.22,29.11 -11.37,10.64 -24.25,18.36 -38.22,22.9 -13.76,4.48 -31.43,6.75 -52.51,6.75l-42.5 0 -12.14 62.44c-0.47,2.42 -2.59,4.17 -5.06,4.17l-54.57 0 0 0z"/>
    <g>
     <path id="path3490" class="fil8" d="M949.62 3945.45l28.89 0c23.07,0 31.09,5.06 33.81,8.08 4.52,5.01 5.37,15.57 2.47,30.54 -3.27,16.76 -9.31,28.64 -17.98,35.31 -8.87,6.83 -23.3,10.3 -42.87,10.3l-20.69 0 16.37 -84.23zm49.56 -60.17l-104.95 0c-4.94,0 -9.18,3.5 -10.12,8.35l-48.7 250.54c-0.58,3.02 0.21,6.15 2.17,8.52 1.96,2.38 4.88,3.76 7.96,3.76l54.57 0c4.94,0 9.19,-3.5 10.13,-8.35l11.32 -58.26 38.25 0c21.62,0 39.83,-2.36 54.11,-7.01 14.68,-4.77 28.19,-12.86 40.14,-24.04 9.89,-9.09 18.03,-19.31 24.2,-30.35 6.18,-11.05 10.61,-23.37 13.18,-36.62 6.39,-32.83 1.2,-59.13 -15.41,-78.15 -16.46,-18.84 -42.31,-28.39 -76.85,-28.39l0 0zm-78.44 154.71l33.2 0c22,0 38.39,-4.15 49.16,-12.44 10.77,-8.29 18.04,-22.13 21.81,-41.52 3.61,-18.62 1.97,-31.76 -4.93,-39.41 -6.91,-7.66 -20.73,-11.49 -41.47,-11.49l-37.39 0 -20.38 104.86 0 0zm78.44 -144.39c31.57,0 54.6,8.28 69.08,24.86 14.48,16.57 18.84,39.7 13.06,69.4 -2.38,12.23 -6.4,23.42 -12.06,33.55 -5.67,10.14 -13.07,19.41 -22.21,27.82 -10.9,10.2 -23,17.47 -36.33,21.79 -13.32,4.34 -30.29,6.5 -50.91,6.5l-46.75 0 -12.95 66.61 -54.57 0 48.69 -250.53 104.95 0z"/>
    </g>
    <path id="path3494" class="fil7" d="M1211.52 4084.68c-1.54,0 -3,-0.69 -3.98,-1.88 -0.98,-1.18 -1.38,-2.75 -1.08,-4.26l21.54 -110.85c2.05,-10.54 1.54,-18.11 -1.43,-21.31 -1.81,-1.95 -7.26,-5.23 -23.39,-5.23l-39.02 0 -27.08 139.36c-0.47,2.42 -2.59,4.17 -5.06,4.17l-54.15 0c-1.54,0 -3,-0.69 -3.98,-1.88 -0.98,-1.18 -1.38,-2.75 -1.08,-4.26l48.69 -250.54c0.47,-2.42 2.6,-4.17 5.07,-4.17l54.14 0c1.54,0 3,0.69 3.98,1.88 0.98,1.19 1.38,2.75 1.08,4.26l-11.75 60.47 41.98 0c31.98,0 53.67,5.64 66.3,17.24 12.88,11.83 16.89,30.75 11.94,56.24l-22.65 116.59c-0.47,2.42 -2.6,4.17 -5.07,4.17l-55 0z"/>
    <g>
     <path id="path3498" class="fil8" d="M1180.71 3818.68l-54.14 0c-4.94,0 -9.19,3.5 -10.13,8.34l-48.69 250.54c-0.59,3.02 0.2,6.15 2.16,8.53 1.96,2.37 4.88,3.75 7.96,3.75l54.15 0c4.93,0 9.18,-3.5 10.12,-8.35l26.27 -135.18 34.77 0c16.1,0 19.48,3.43 19.61,3.58 0.98,1.05 2.26,5.92 0.14,16.82l-21.54 110.85c-0.58,3.02 0.21,6.15 2.17,8.53 1.96,2.37 4.88,3.75 7.96,3.75l55 0c4.94,0 9.19,-3.5 10.13,-8.35l22.65 -116.58c5.32,-27.37 0.77,-47.9 -13.51,-61.03 -13.63,-12.51 -36.46,-18.6 -69.79,-18.6l-35.72 0 10.56 -54.32c0.58,-3.03 -0.21,-6.15 -2.17,-8.53 -1.96,-2.38 -4.88,-3.75 -7.96,-3.75l0 0zm0 10.31l-12.94 66.61 48.23 0c30.35,0 51.29,5.3 62.81,15.88 11.52,10.59 14.98,27.74 10.37,51.46l-22.66 116.59 -55 0 21.54 -110.86c2.45,-12.61 1.55,-21.21 -2.71,-25.79 -4.25,-4.59 -13.31,-6.89 -27.16,-6.89l-43.28 0 -27.89 143.54 -54.15 0 48.7 -250.54 54.14 0z"/>
    </g>
    <path id="path3502" class="fil7" d="M1379.92 4034.83c20.74,0 36.22,-3.82 46.02,-11.36 9.69,-7.46 16.38,-20.39 19.89,-38.42 3.27,-16.86 2.03,-28.63 -3.7,-34.98 -5.86,-6.49 -18.52,-9.78 -37.64,-9.78l-33.14 0 -18.37 94.54 26.94 0zm-108.4 116.46c-1.54,0 -3,-0.69 -3.98,-1.88 -0.98,-1.18 -1.38,-2.75 -1.08,-4.26l48.69 -250.54c0.47,-2.42 2.59,-4.17 5.06,-4.17l104.95 0c32.99,0 57.53,8.96 72.97,26.62 15.51,17.76 20.3,42.58 14.23,73.78 -2.47,12.71 -6.71,24.52 -12.62,35.08 -5.91,10.58 -13.72,20.37 -23.22,29.11 -11.37,10.64 -24.25,18.36 -38.22,22.9 -13.76,4.48 -31.43,6.75 -52.51,6.75l-42.5 0 -12.13 62.44c-0.47,2.42 -2.6,4.17 -5.07,4.17l-54.57 0 0 0z"/>
    <g>
     <path id="path3506" class="fil8" d="M1375.6 3945.45l28.89 0c23.07,0 31.09,5.06 33.81,8.08 4.52,5.01 5.37,15.57 2.47,30.54 -3.27,16.76 -9.31,28.64 -17.98,35.31 -8.87,6.83 -23.3,10.3 -42.87,10.3l-20.69 0 16.37 -84.23zm49.56 -60.17l-104.95 0c-4.93,0 -9.18,3.5 -10.12,8.35l-48.69 250.54c-0.59,3.02 0.2,6.15 2.16,8.52 1.96,2.38 4.88,3.76 7.96,3.76l54.58 0c4.93,0 9.18,-3.5 10.12,-8.35l11.32 -58.26 38.25 0c21.62,0 39.83,-2.36 54.11,-7.01 14.68,-4.77 28.19,-12.86 40.15,-24.04 9.88,-9.1 18.02,-19.31 24.19,-30.35 6.18,-11.05 10.61,-23.37 13.18,-36.62 6.39,-32.84 1.2,-59.13 -15.41,-78.15 -16.46,-18.84 -42.31,-28.39 -76.85,-28.39l0 0zm-78.44 154.71l33.2 0c22,0 38.39,-4.15 49.16,-12.44 10.77,-8.29 18.04,-22.13 21.81,-41.52 3.61,-18.62 1.97,-31.76 -4.93,-39.41 -6.91,-7.66 -20.73,-11.49 -41.47,-11.49l-37.39 0 -20.38 104.86 0 0zm78.44 -144.39c31.57,0 54.6,8.28 69.08,24.86 14.48,16.57 18.84,39.7 13.06,69.4 -2.38,12.23 -6.4,23.42 -12.06,33.55 -5.67,10.14 -13.07,19.41 -22.21,27.82 -10.9,10.2 -23,17.47 -36.33,21.79 -13.32,4.34 -30.29,6.5 -50.91,6.5l-46.75 0 -12.95 66.61 -54.57 0 48.69 -250.53 104.95 0 0 0zm0 0l0 0 0 0z"/>
    </g>
   </g>
  </g>
  <g id="Symfony">
   <g>
    <path class="fil7" d="M3170.01 4004.74c0,-137.3 -111.31,-248.61 -248.61,-248.61 -137.31,0 -248.62,111.31 -248.62,248.61 0,137.31 111.31,248.62 248.62,248.62 137.3,0 248.61,-111.31 248.61,-248.62z"/>
    <path class="fil8" d="M3030.09 3848.12c-25.25,0.89 -47.31,14.81 -63.7,34.06 -18.18,21.11 -30.26,46.17 -38.97,71.73 -15.58,-12.77 -27.6,-29.3 -52.59,-36.51 -19.34,-5.55 -39.62,-3.26 -58.28,10.64 -8.84,6.61 -14.93,16.59 -17.83,25.97 -7.51,24.39 7.88,46.1 14.87,53.9l15.28 16.35c3.15,3.21 10.72,11.59 7.03,23.59 -4.01,13.07 -19.74,21.51 -35.88,16.54 -7.21,-2.23 -17.57,-7.59 -15.24,-15.14 0.95,-3.1 3.17,-5.43 4.36,-8.08 1.09,-2.3 1.6,-4.02 1.93,-5.03 2.95,-9.63 -1.08,-22.15 -11.39,-25.33 -9.62,-2.94 -19.46,-0.61 -23.27,11.76 -4.34,14.1 2.4,39.61 38.47,50.74 42.26,12.99 78.02,-10.03 83.08,-40.04 3.2,-18.79 -5.3,-32.77 -20.84,-50.74l-12.67 -14c-7.68,-7.68 -10.31,-20.74 -2.37,-30.77 6.7,-8.48 16.24,-12.09 31.89,-7.85 22.82,6.18 33,22.03 49.97,34.81 -7.01,22.98 -11.59,46.05 -15.73,66.75l-2.54 15.42c-12.14,63.64 -21.4,98.58 -45.47,118.64 -4.84,3.46 -11.79,8.61 -22.23,8.98 -5.48,0.17 -7.24,-3.6 -7.33,-5.25 -0.13,-3.84 3.12,-5.6 5.28,-7.33 3.21,-1.76 8.07,-4.67 7.74,-13.97 -0.36,-11.04 -9.48,-20.59 -22.66,-20.13 -9.89,0.32 -24.94,9.61 -24.37,26.65 0.59,17.57 16.97,30.76 41.68,29.91 13.21,-0.43 42.7,-5.81 71.76,-40.36 33.82,-39.61 43.29,-85.02 50.41,-118.25l7.93 -43.86c4.42,0.52 9.13,0.89 14.27,1 42.13,0.9 63.2,-20.93 63.53,-36.8 0.2,-9.61 -6.31,-19.06 -15.43,-18.84 -6.52,0.19 -14.72,4.52 -16.69,13.54 -1.92,8.85 13.41,16.84 1.43,24.61 -8.51,5.52 -23.77,9.4 -45.26,6.24l3.92 -21.6c7.96,-40.95 17.81,-91.32 55.12,-92.54 2.72,-0.14 12.67,0.13 12.9,6.7 0.07,2.19 -0.48,2.76 -3.04,7.79 -2.63,3.91 -3.62,7.25 -3.5,11.1 0.37,10.45 8.31,17.32 19.82,16.91 15.38,-0.5 19.81,-15.48 19.56,-23.18 -0.64,-18.12 -19.72,-29.54 -44.95,-28.73z"/>
   </g>
   <path class="fil7" d="M4180.17 3934.8c57.34,0 95.77,41.42 95.77,98.72 0,53.99 -39.18,98.71 -95.77,98.71 -56.92,0 -96.11,-44.72 -96.11,-98.71 0,-57.3 38.42,-98.72 96.11,-98.72zm0 169.37c40.68,0 58.78,-36.98 58.78,-70.65 0,-35.85 -21.81,-70.61 -58.78,-70.61 -37.33,0 -59.16,34.75 -59.16,70.61 0,33.67 18.13,70.65 59.16,70.65zm-100.87 -151.82l0 -13.12 -49.93 0 0 -17.92c0,-25.52 3.71,-44.77 33.64,-44.77 0.55,0 1.13,0.05 1.71,0.08 0.06,0 0.04,-0.1 0.11,-0.1 8.31,0.6 15.23,-6.15 15.69,-14.46l0.61 -11.39c-7.03,-1.12 -14.44,-2.22 -23.3,-2.22 -51.39,0 -63.21,29.96 -63.21,75.81l0 14.97 -44.42 0 0 14.64c1.15,7.59 7.65,13.44 15.57,13.44 0.04,0 0.08,0.04 0.13,0.04l28.72 0 0 160.47 19.13 0c0.04,0 0.02,0 0.06,0 7.97,0 14.47,-6.01 15.55,-13.65l0 -146.82 34.77 0c8.18,-0.27 14.76,-6.82 15.17,-15zm-462.97 -13.12c-0.05,0 -0.09,0.05 -0.19,0.05 -7.31,0 -14.41,5.03 -17.5,11.83l-47.82 144.17 -0.74 0 -46.77 -144.09c-3.06,-6.85 -10.19,-11.92 -17.55,-11.92 -0.09,0 -0.12,-0.05 -0.19,-0.05l-24.24 0 63.97 176.01c2.23,6.3 6.68,15.92 6.68,19.97 0,3.72 -10.37,46.58 -41.44,46.58 -0.76,0 -1.54,-0.09 -2.29,-0.14 -7.93,-0.44 -13.92,5.1 -15.24,13.63l-0.94 12.04c6.29,1.1 12.59,2.59 23.68,2.59 45.84,0 59.52,-41.81 72.48,-78.03l69.49 -192.65 -21.39 -0.01 0 0.02zm-220.94 38.31c-28.7,-14.69 -60.11,-24.67 -60.66,-54.21 0.09,-31.38 28.92,-39.62 51.14,-39.6 0.1,-0.02 0.19,-0.02 0.24,-0.02 9.66,0 17.37,0.96 24.91,2.62 0.1,0 0.08,-0.13 0.19,-0.13 7.97,0.59 14.66,-5.64 15.59,-13.49l0.64 -11.39c-14.57,-3.62 -29.79,-5.47 -43.04,-5.47 -48.31,0.31 -84.19,24.62 -84.31,71.01 0.06,40.57 27.39,56.28 56.81,70.53 28.83,13.86 60.4,25.31 60.68,58.79 -0.16,34.93 -33.87,47.79 -57.1,47.85 -13.59,-0.06 -28.33,-3.43 -40.76,-7.35 -7.79,-1.29 -14.17,5.59 -15.19,14.68l-1.05 10.15c17.09,5.52 34.59,10.34 52.21,10.34 0,0 0.01,0 0.03,0 0.05,0 0.11,0 0.17,0 54.12,-0.4 96.19,-21.98 96.36,-78.03 -0.06,-43.24 -27.59,-61.4 -56.86,-76.28zm525.68 150.28c0.02,0 0.02,0 0.04,0 7.5,0 13.76,-5.28 15.33,-12.3l0 -108.62c0,-41.04 -17.34,-72.11 -65.44,-72.11 -17,0 -45.47,9.63 -58.41,36.62 -9.98,-25.52 -31.8,-36.62 -53.59,-36.62 -27.75,0 -46.62,9.98 -59.92,31.81l-0.74 0 0 -11.73c-0.11,-8.63 -7.09,-15.6 -15.74,-15.6 -0.08,0 -0.11,-0.05 -0.17,-0.05l-16.62 0 0 188.59 18.81 0c0.03,0 0.03,0 0.04,0 8.72,0 15.77,-7.08 15.77,-15.77 0,-0.24 0.08,-0.33 0.16,-0.49l0 -78.78c0,-35.12 14.04,-69.87 49.53,-69.87 28.08,0 33.67,29.2 33.67,52.5l0 112.4 19.06 0c0.02,0 0.02,0 0.05,0 8.24,0 14.87,-6.33 15.61,-14.37l0 -80.66c0,-35.11 14.06,-69.86 49.55,-69.86 28.1,0 33.65,29.19 33.65,52.5l0 112.39 19.36 0 0 0.02zm537.11 0c0.02,0 0.02,0 0.04,0 8.48,0 15.31,-6.7 15.71,-15.08l0 -96.96c0,-50.65 -21.84,-80.99 -70.65,-80.99 -26.25,0 -51.37,12.95 -61.75,34.41l-0.73 0 0 -14.09c0,-0.02 -0.03,-0.02 -0.03,-0.05 0,-8.74 -7.08,-15.8 -15.76,-15.8 -0.1,0 -0.11,-0.04 -0.18,-0.04l-17.69 0 0 188.59 19.1 0c0,0 0,0 0.04,0 8.27,0 14.97,-6.44 15.61,-14.55l0 -72.72c0,-45.84 17.77,-77.63 57.33,-77.63 30.35,1.83 39.91,23.26 39.91,67.28l0 97.61 19.05 0 0 0.02zm187.12 -188.59c-0.09,0 -0.13,0.05 -0.2,0.05 -7.32,0 -14.42,5.03 -17.51,11.83l-47.8 144.17 -0.78 0 -46.78 -144.09c-3.06,-6.85 -10.18,-11.92 -17.53,-11.92 -0.08,0 -0.12,-0.05 -0.18,-0.05l-24.24 0 63.98 176.01c2.21,6.3 6.68,15.92 6.68,19.97 0,3.72 -10.37,46.58 -41.45,46.58 -0.75,0 -1.51,-0.09 -2.29,-0.14 -7.93,-0.44 -13.89,5.1 -15.25,13.63l-0.94 12.04c6.28,1.1 12.6,2.59 23.7,2.59 45.84,0 59.51,-41.81 72.48,-78.03l69.51 -192.65 -21.4 -0.01 0 0.02z"/>
  </g>
  <g id="_1692832792752">
   <g>
    <path class="fil9" d="M6338.58 4014.75l-101.31 0 0 -110.88 106.81 0c39.09,0 58.64,18.77 58.64,56.3 0,36.39 -21.39,54.59 -64.14,54.59l0 -0.01zm72.81 -112.17c-13.97,-13.53 -33.31,-20.29 -58.27,-20.29l-145.07 0.87 0 265.25 29.22 0.01 -0.26 -112.92 107.96 -0.01c27.07,0 48.38,-6.76 63.93,-20.29 15.55,-13.53 23.33,-32.3 23.33,-56.31 0,-24.01 -6.94,-42.78 -20.82,-56.31l-0.02 0zm189.21 190.14c-2.79,8.66 -7.58,16.44 -13.88,22.56 -13.09,13.91 -33.07,20.85 -59.94,20.85 -24.27,0 -42.88,-6.65 -55.87,-20.27 -12.99,-13.63 -19.5,-31.61 -19.5,-54.28 0,-11.8 1.71,-22.28 5.1,-31.42 3.4,-9.14 8.33,-16.85 14.79,-23.14 13.45,-13.33 31.94,-20 55.49,-20 52.18,0 78.27,24.86 78.27,74.56 0,11.81 -1.49,22.19 -4.37,31.14l-0.09 0zm5.39 -97.86c-17.81,-17.67 -44.18,-26.6 -79.12,-26.6 -33,0 -58.5,9.03 -76.49,27.08 -16.24,16.34 -24.44,38.38 -24.44,66.14 0,27.55 8.38,49.78 25.14,66.69 9.25,9.12 20.03,15.74 32.35,19.82 12.32,4.08 26.77,6.13 43.36,6.13 34.74,0 61.11,-8.74 79.37,-26.22 16.24,-15.96 24.45,-38 24.45,-66.43 0,-28.5 -8.21,-50.74 -24.62,-66.71l0 0.1zm221.03 105.52c0,35.7 -29.39,53.56 -88.17,53.56 -17.97,0 -33.11,-1.24 -45.4,-3.73 -12.29,-2.48 -22.29,-6.6 -29.96,-12.33 -5.91,-4.36 -10.78,-10.24 -14.13,-17.11 -3.49,-7.03 -5.76,-15.86 -6.81,-26.6l27.35 -0.28c0,14.06 4.79,24.4 14.36,31.05 10.28,7.98 28.46,11.97 54.59,11.97 41.08,0 61.64,-11.21 61.64,-33.61 0,-13.11 -6.99,-22.12 -20.67,-27.08 -2.8,-0.95 -19.41,-3.47 -49.77,-7.54 -30.35,-4.08 -49.41,-7.75 -56.9,-10.98 -16.22,-7.03 -24.33,-19.66 -24.33,-37.89 0,-17.86 7.24,-31.16 21.82,-39.88 7.16,-3.61 16.11,-6.4 26.86,-8.41 10.75,-2.01 23.19,-2.99 37.33,-2.99 56.59,0 84.89,19.32 84.89,57.95l-26.03 0.01c0,-27.17 -19.91,-40.85 -59.67,-40.85 -20.24,0 -35.33,2.85 -45.27,8.26 -9.95,5.42 -14.92,13.97 -14.92,25.37 0,10.64 6.73,18.33 20.16,23.08 7.85,2.47 25.91,5.32 54.18,8.55 25.3,2.47 42.66,5.99 52.08,10.45 17.98,7.6 26.96,20.52 26.96,38.73l-0.19 0.3zm107.44 48.39l-11.13 1.71 -6.94 0.57c-17.81,0 -30.55,-2.81 -38.53,-8.43 -7.97,-5.62 -11.81,-15.46 -11.81,-29.45l0 -121.18 -32.35 0 0 -17.8 32.18 0 0.26 -57.2 24.94 0 0 57.2 43.42 0 0 18.09 -43.42 -0.29 0 117.78c0,8.77 2.14,14.82 6.42,18.05 4.28,3.23 11.91,5 22.91,5 1.57,0.19 3.31,0.13 5.24,-0.19 2.89,-0.56 5.8,-1.29 8.64,-2.15l0.26 18.05 -0.09 0.24zm172.47 -40.19c-6.81,6.08 -14.56,10.72 -23.29,13.97 -8.72,3.24 -18.75,4.75 -30.08,4.75 -52.16,0 -78.23,-23.44 -78.23,-70.31 0,-21.82 6.67,-38.9 20.02,-51.24 13.35,-12.34 32.13,-18.51 56.38,-18.51 24.42,0 42.96,6.22 55.6,18.65 12.64,12.43 18.97,29.09 18.97,49.97 0,22.78 -6.46,40.33 -19.36,52.67l-0.01 0.05zm44.31 -134.35l-24.93 0 -0.26 29.93c-11,-12.16 -18.86,-19.83 -23.57,-23.06 -13.97,-8.36 -32.03,-12.52 -54.19,-12.52 -32.46,0 -57.26,8.08 -74.35,24.21 -16.24,14.82 -24.34,36.26 -24.34,64.36 0,13.87 2.05,26.24 6.15,37.05 4.1,10.81 10.09,20.17 17.96,27.76 17.13,15.56 41.33,23.35 72.63,23.35 37.58,0 64.23,-11.18 79.97,-33.55l0 30.97c0,19.76 -5.72,35.04 -17.14,45.87 -11.43,10.83 -30.24,16.15 -56.42,16.15 -24.62,0 -42.15,-3.8 -52.61,-11.06 -7.86,-5.68 -13.27,-15.51 -16.24,-29.5l-25.67 0c2.8,19.54 10.48,33.68 22.7,42.4 14.32,10.05 38.41,15.08 72.46,15.08 65.13,0 97.78,-26.35 97.78,-79.05l0 -168.31 0.07 -0.08zm134.89 17.61c-7.51,-1.33 -14.48,-1.9 -20.92,-1.9 -40.99,0 -61.48,24.46 -61.48,73.37l0 85.07 -24.67 0 -0.26 -174.07 24.94 0.27 0 31.06 1.31 0c4.19,-12.23 10.82,-21.52 19.89,-27.83 9.93,-6.12 24.76,-9.18 44.47,-9.18l16.73 0 0 23.37 -0.01 -0.16zm23.19 58.5c3.15,-19.78 10.22,-35.09 21.19,-45.94 7.16,-6.27 15.28,-10.99 24.34,-14.13 9.07,-3.13 19.21,-4.71 30.63,-4.71 22.16,0 40.16,6.62 54.3,19.84 14.14,13.23 21.06,28.22 21.06,44.94l-151.52 -0.01 0 0.01zm153.95 -53.7c-8.74,-9.53 -19.56,-16.57 -32.48,-21.15 -12.92,-4.58 -27.94,-6.86 -45.4,-6.86 -32.3,0 -57.36,8.17 -75.19,24.51 -17.82,16.34 -26.71,38.57 -26.71,66.71 0,28.14 8.56,50.36 25.67,66.98 18.51,18.24 44.52,27.36 78.29,27.36 13.45,0 25.87,-1.66 37.31,-4.97 11.44,-3.3 21.43,-8 29.98,-14.06 15.02,-11.73 24.52,-26.22 28.55,-43.41l-26.97 0c-9.25,29.76 -32.27,44.65 -69.09,44.65 -26,0 -45.98,-7.28 -59.93,-21.84 -12.05,-12.47 -18.06,-28.63 -18.06,-48.48l177.78 0c0,-29.53 -7.86,-52.68 -23.83,-69.36l0.08 -0.08z"/>
   </g>
   <g>
    <path class="fil10" d="M7750.55 4077.29c0,51.68 -38.3,77.52 -114.9,77.52 -45.9,0 -79.41,-8.9 -100.51,-26.6 -17.29,-14.63 -25.92,-36.94 -25.92,-66.96l30.84 0c0,48.24 31.86,72.36 95.58,72.36 30.55,0 52.64,-4.94 66.35,-14.8 11.52,-8.72 17.28,-22.39 17.28,-40.98 0,-18.42 -7.85,-31.32 -23.57,-38.72 -8.91,-3.99 -30.56,-9.03 -65.21,-15.09 -43.48,-7.22 -71.66,-14.42 -84.58,-21.64 -18.69,-10.64 -27.94,-28.66 -27.94,-54.09 0,-23.73 7.85,-41.38 23.83,-52.96 17.11,-12.71 46.45,-19.08 87.99,-19.08 75.08,0 112.62,27.14 112.62,81.41l-31.11 0c0,-40.67 -27.88,-60.98 -83.62,-60.98 -27.96,0 -48.41,4.09 -61.34,12.35 -12.24,8.74 -18.33,21.57 -18.33,38.48 0,17.67 7.85,30.12 23.57,37.34 8.38,4.18 33,9.97 73.86,17.39 38.41,6.26 64.34,13.58 77.7,21.85 18.33,10.26 27.5,28.02 27.5,53.2l-0.09 0zm250.57 26.37c-11.53,10.04 -24.55,17.58 -39.06,22.61 -14.5,5.03 -30.75,7.53 -48.75,7.53 -36.7,0 -66.34,-10.76 -88.99,-32.28 -22.65,-21.52 -33.94,-50.2 -33.94,-86.05 0,-37.35 11.22,-66.46 33.68,-87.33 22.45,-20.86 52.2,-31.28 89.25,-31.28 37.56,0 67.1,10.9 88.59,32.71 11.35,10.64 19.73,23.05 25.16,37.27 5.43,14.22 8.12,30.44 8.12,48.65 0,37.16 -11.37,66.56 -34.08,88.16l0.02 0.01zm16.37 17.58c16.06,-12.33 27.96,-27.26 35.65,-44.82 7.69,-17.55 11.54,-37.81 11.54,-60.78 0,-41.19 -12.57,-74.11 -37.72,-99.08 -13.44,-13.66 -29.68,-23.81 -48.71,-30.46 -19.03,-6.64 -40.77,-9.97 -65.22,-9.97 -47.49,0 -84.68,12.54 -111.74,37.57 -27.07,25.03 -40.6,59.02 -40.6,101.91 0,41.75 13.65,75.44 40.97,101.05 27.32,25.61 64.63,38.43 111.93,38.43 18.5,0 34.64,-1.36 48.42,-4.09 13.78,-2.73 25.49,-6.9 35.1,-12.54l45.55 34.36 19.03 -19.02 -44.11 -32.55 -0.09 -0.01zm278.06 27.15l-210.8 0 0 -265.64 28.97 -0.57 0 243.95 182.01 0 -0.26 22.17 0.08 0.09z"/>
   </g>
   <g>
    <path class="fil9" d="M6008.13 4103.8c2.93,-22.51 2.05,-25.82 20.24,-22.17l4.62 0.38c13.99,0.59 32.28,-2.07 43.03,-6.68 23.13,-9.9 36.84,-26.43 14.04,-22.09 -52.04,9.9 -55.62,-6.36 -55.62,-6.36 54.94,-75.2 77.91,-170.66 58.1,-194.03 -54.18,-63.73 -147.68,-33.59 -149.34,-32.8l-0.5 0.09c-10.28,-1.96 -21.79,-3.13 -34.71,-3.32 -23.54,-0.36 -41.41,5.7 -54.96,15.17 0,0 -166.98,-63.46 -159.21,79.81 1.66,30.47 47.37,230.6 101.87,170.15 19.92,-22.11 39.18,-40.79 39.18,-40.79 8.6,5.23 18.3,7.99 28.15,7.99 1.62,0 3.25,-0.08 4.86,-0.22l0.92 -0.74c-0.28,2.76 -0.17,5.42 0.38,8.61 -14.04,14.47 -9.92,17.01 -38,22.35 -28.4,5.39 -11.71,15.01 -0.82,17.53 13.21,3.04 43.77,7.36 64.41,-19.29l-0.82 3.04c5.5,4.07 5.14,29.22 5.92,47.19 0.79,17.98 2.1,34.74 6.06,44.63 3.96,9.89 8.66,35.35 45.55,28.07 30.84,-6.1 54.42,-14.87 56.58,-96.48l0.07 -0.04zm0 0l0 0 0 0z"/>
    <path id="_1_33" class="fil11 str1" d="M6008.13 4103.8c2.93,-22.51 2.05,-25.82 20.24,-22.17l4.62 0.38c13.99,0.59 32.28,-2.07 43.03,-6.68 23.13,-9.9 36.84,-26.43 14.04,-22.09 -52.04,9.9 -55.62,-6.36 -55.62,-6.36 54.94,-75.2 77.91,-170.66 58.1,-194.03 -54.18,-63.73 -147.68,-33.59 -149.34,-32.8l-0.5 0.09c-10.28,-1.96 -21.79,-3.13 -34.71,-3.32 -23.54,-0.36 -41.41,5.7 -54.96,15.17 0,0 -166.98,-63.46 -159.21,79.81 1.66,30.47 47.37,230.6 101.87,170.15 19.92,-22.11 39.18,-40.79 39.18,-40.79 8.6,5.23 18.3,7.99 28.15,7.99 1.62,0 3.25,-0.08 4.86,-0.22l0.92 -0.74c-0.28,2.76 -0.17,5.42 0.38,8.61 -14.04,14.47 -9.92,17.01 -38,22.35 -28.4,5.39 -11.71,15.01 -0.82,17.53 13.21,3.04 43.77,7.36 64.41,-19.29l-0.82 3.04c5.5,4.07 5.14,29.22 5.92,47.19 0.79,17.98 2.1,34.74 6.06,44.63 3.96,9.89 8.66,35.35 45.55,28.07 30.84,-6.1 54.42,-14.87 56.58,-96.48m0.07 -0.04l0 0 0 0z"/>
   </g>
   <path class="fil12" d="M6090.05 4053.23c-52.04,9.9 -55.62,-6.37 -55.62,-6.37 54.94,-75.2 77.91,-170.66 58.1,-194.02 -54.08,-63.72 -147.67,-33.58 -149.33,-32.79l-0.5 0.09c-10.29,-1.96 -21.79,-3.13 -34.72,-3.32 -23.55,-0.35 -41.41,5.7 -54.96,15.17 0,0 -166.99,-63.46 -159.21,79.81 1.66,30.47 47.35,230.61 101.86,170.15 19.93,-22.11 39.18,-40.79 39.18,-40.79 8.59,5.23 18.29,7.99 28.15,7.99 1.62,0 3.24,-0.08 4.85,-0.22l0.94 -0.74c-0.29,2.76 -0.16,5.42 0.37,8.61 -14.04,14.47 -9.92,17.01 -37.97,22.35 -28.41,5.39 -11.72,15.01 -0.83,17.53 13.21,3.04 43.77,7.36 64.42,-19.29l-0.82 3.04c5.5,4.07 9.36,26.44 8.73,46.75 -0.64,20.3 -1.09,34.2 3.25,45.08 4.34,10.89 8.66,35.35 45.57,28.07 30.84,-6.1 46.83,-21.89 49.04,-48.25 1.57,-18.73 5.15,-15.96 5.37,-32.71l2.87 -7.92c3.3,-25.4 0.52,-33.59 19.52,-29.78l4.62 0.38c13.99,0.59 32.29,-2.07 43.03,-6.67 23.13,-9.9 36.84,-26.44 14.04,-22.09l0.05 -0.06z"/>
   <g>
    <g>
     <path class="fil11 str2" d="M5897.09 4067.8c-1.44,47.24 0.35,94.83 5.37,106.4 5.01,11.57 15.74,34.06 52.66,26.76 30.83,-6.1 42.05,-17.9 46.92,-43.95 3.49,-19.16 10.5,-72.39 11.38,-83.29m-160.58 -242.81c0,0 -167.18,-62.99 -159.32,80.35 1.74,30.47 47.35,230.61 101.88,170.05 19.92,-22.1 37.93,-39.44 37.93,-39.44m109.87 -222.46c-5.78,1.68 92.95,-33.29 149.06,32.85 19.82,23.37 -3.14,118.83 -58.09,194.04"/>
     <path class="fil11 str3" d="M6034.09 4046.29c0,0 3.49,16.24 55.61,6.34 22.8,-4.34 9.08,12.19 -14.06,22.1 -18.98,8.12 -61.53,10.2 -62.22,-1.02 -1.79,-28.97 22.39,-20.17 20.65,-27.43 -1.58,-6.53 -12.4,-12.95 -19.56,-28.95 -6.24,-13.96 -85.65,-121.05 22.02,-105.15 3.94,-0.76 -28.09,-94.47 -128.86,-95.99 -100.78,-1.52 -97.44,114.29 -97.44,114.29"/>
    </g>
    <g>
     <path class="fil11 str4" d="M5868.89 4056.19c-14.06,14.47 -9.92,17.01 -38,22.35 -28.41,5.41 -11.71,15.01 -0.82,17.53 13.21,3.04 43.77,7.36 64.41,-19.3 6.29,-8.13 -0.03,-21.1 -8.66,-24.38 -4.18,-1.6 -9.76,-3.59 -16.94,3.8l0.01 0z"/>
     <path class="fil11 str2" d="M5867.97 4055.95c-1.41,-8.51 3.03,-18.62 7.8,-30.48 7.16,-17.77 23.68,-35.55 10.48,-91.94 -9.85,-42.02 -75.93,-8.74 -75.96,-3.04 -0.02,5.7 2.99,28.88 -1.11,55.87 -5.34,35.23 24.3,65.01 58.43,61.97"/>
    </g>
   </g>
   <g>
    <path class="fil8 str5" d="M5852.25 3929.62c-0.3,1.95 3.87,7.12 9.29,7.83 5.42,0.7 10.04,-3.37 10.34,-5.3 0.3,-1.94 -3.86,-4.09 -9.29,-4.79 -5.43,-0.71 -10.05,0.32 -10.34,2.26z"/>
    <path class="fil8 str6" d="M6017.17 3925.66c0.3,1.95 -3.85,7.12 -9.28,7.83 -5.44,0.7 -10.06,-3.37 -10.36,-5.32 -0.3,-1.96 3.87,-4.09 9.29,-4.79 5.42,-0.71 10.04,0.31 10.34,2.26l0.01 0.02z"/>
   </g>
   <path class="fil11 str2" d="M6036.56 3912.19c0.89,15.26 -3.57,25.65 -4.13,41.91 -0.83,23.62 12.2,50.64 -7.44,77.72"/>
  </g>
 </g>
</svg>
